<svg width="404" height="258" viewBox="0 0 404 258" fill="none" xmlns="http://www.w3.org/2000/svg">
<g clip-path="url(#clip0_1_435)">
<path d="M256.101 170.425C254.817 170.416 253.538 170.28 252.282 170.019C243.549 168.268 237.638 160.27 235.185 146.898C234.065 140.356 233.701 133.706 234.102 127.08L234.575 127.118C234.544 127.501 231.719 165.412 252.377 169.554C262.331 171.55 265.713 165.786 268.983 160.211C272.538 154.148 275.897 148.422 287.302 154.055L287.092 154.481C276.083 149.042 272.981 154.329 269.392 160.452C266.623 165.166 263.54 170.425 256.101 170.425Z" fill="#C1D8ED"/>
<path d="M144.308 172.921C142.307 172.921 140.086 172.075 137.667 170.388C125.362 161.804 116.578 169.876 116.491 169.958L116.166 169.614C116.255 169.529 125.309 161.191 137.938 170C141.603 172.555 144.765 173.11 147.339 171.649C155.032 167.28 156.382 146.215 155.081 127.958L155.554 127.925C156.865 146.325 155.456 167.582 147.573 172.06C146.579 172.63 145.453 172.926 144.308 172.921Z" fill="#C1D8ED"/>
<path d="M283.377 0H109.563C106.224 0 103.518 2.70698 103.518 6.0462V129.793C103.518 133.132 106.224 135.839 109.563 135.839H283.377C286.716 135.839 289.422 133.132 289.422 129.793V6.0462C289.422 2.70698 286.716 0 283.377 0Z" fill="#C1D8ED"/>
<path d="M280.1 0H106.285C102.947 0 100.24 2.70698 100.24 6.0462V129.793C100.24 133.132 102.947 135.839 106.285 135.839H280.1C283.438 135.839 286.145 133.132 286.145 129.793V6.0462C286.145 2.70698 283.438 0 280.1 0Z" fill="#DEE8F5"/>
<path d="M276.092 5.77505H110.539C108.317 5.77505 106.516 7.57674 106.516 9.79922V125.852C106.516 128.074 108.317 129.876 110.539 129.876H276.092C278.314 129.876 280.115 128.074 280.115 125.852V9.79922C280.115 7.57674 278.314 5.77505 276.092 5.77505Z" fill="white"/>
<path d="M349.495 138.019C349.459 137.446 349.443 136.826 349.451 136.158C349.457 135.302 349.506 134.365 349.603 133.344L342.061 131.848C342.184 133.725 342.11 135.61 341.841 137.472C341.836 137.519 341.826 137.566 341.82 137.614V137.618C341.457 139.886 340.681 142.233 339.066 143.486L350.898 143.628C350.281 142.534 349.669 140.77 349.495 138.019Z" fill="#E98862"/>
<path d="M353.937 129.531C353.376 132.547 351.693 135.39 349.016 136.334C345.838 137.455 343.492 137.505 339.844 137.461C334.864 137.401 335.092 132.208 335.016 126.973C334.938 121.716 335.425 116.084 337.415 114.277C341.389 110.67 352.888 113.124 354.217 119.254C354.902 122.425 354.469 126.66 353.937 129.531Z" fill="#E98862"/>
<path d="M332.093 114.154C332.962 111.109 335.577 109.648 339.856 110.822C342.9 111.658 343.295 110.945 345.895 109.731C347.385 109.036 352.238 109.421 353.401 112.724C354.648 116.263 358.669 113.458 358.97 119.202C359.222 124.01 357.515 130.858 354.205 134.683C353.06 136.008 351.198 137.588 349.766 137.967C348.36 138.34 342.304 137.926 341.719 137.57C338.846 135.815 339.239 127.937 339.759 122.886C339.844 122.055 339.708 120.671 337.573 120.645C336.107 120.627 335.295 120.583 334.545 120.027C334.544 120.027 331.222 117.199 332.093 114.154Z" fill="#0F1011"/>
<path d="M336.829 127.987C336.789 128.37 336.824 128.756 336.934 129.125C337.044 129.494 337.226 129.837 337.47 130.134C337.713 130.432 338.013 130.679 338.353 130.859C338.692 131.04 339.064 131.152 339.447 131.188C339.83 131.224 340.216 131.184 340.583 131.07C340.951 130.955 341.291 130.769 341.586 130.522C341.881 130.275 342.124 129.972 342.301 129.63C342.477 129.289 342.585 128.916 342.616 128.532C342.659 128.151 342.624 127.765 342.514 127.398C342.404 127.03 342.222 126.689 341.977 126.393C341.733 126.098 341.431 125.854 341.091 125.678C340.75 125.502 340.378 125.395 339.996 125.366C337.925 125.273 336.98 126.389 336.829 127.987Z" fill="#E98862"/>
<path d="M340.046 127.661C339.877 127.628 339.72 127.549 339.592 127.434C339.465 127.318 339.371 127.17 339.321 127.005C339.203 126.612 337.953 117.369 341.571 111.8C342.148 110.843 342.946 110.036 343.897 109.447C344.847 108.858 345.925 108.503 347.039 108.412C347.163 108.399 347.288 108.411 347.408 108.446C347.527 108.481 347.638 108.54 347.735 108.618C347.832 108.697 347.912 108.793 347.971 108.903C348.03 109.012 348.068 109.132 348.08 109.256C348.134 109.777 347.757 109.768 347.237 109.824C344.714 110.085 344.332 111.076 343.148 112.852C339.955 117.646 341.109 126.373 341.135 126.461C341.182 126.617 341.188 126.783 341.153 126.942C341.117 127.101 341.04 127.249 340.931 127.369C340.821 127.49 340.682 127.581 340.528 127.632C340.373 127.684 340.207 127.694 340.047 127.663L340.046 127.661Z" fill="#C1D8ED"/>
<path d="M341.386 131.634C343.89 131.634 345.92 129.604 345.92 127.099C345.92 124.594 343.89 122.564 341.386 122.564C338.882 122.564 336.852 124.594 336.852 127.099C336.852 129.604 338.882 131.634 341.386 131.634Z" fill="#C1D8ED"/>
<path d="M339.751 131.53C342.256 131.53 344.286 129.5 344.286 126.995C344.286 124.49 342.256 122.46 339.751 122.46C337.247 122.46 335.217 124.49 335.217 126.995C335.217 129.5 337.247 131.53 339.751 131.53Z" fill="#DEE8F5"/>
<path d="M334.74 133.634C333.911 133.634 332.965 133.597 331.901 133.523C331.713 133.51 331.538 133.423 331.415 133.281C331.291 133.139 331.229 132.954 331.242 132.766C331.247 132.672 331.27 132.58 331.311 132.496C331.352 132.412 331.409 132.336 331.48 132.275C331.551 132.213 331.633 132.167 331.723 132.138C331.812 132.109 331.906 132.099 331.999 132.107C334.354 132.271 337.184 132.224 337.771 131.899C338.064 131.022 338.31 130.13 338.509 129.227C338.528 129.134 338.565 129.046 338.619 128.967C338.673 128.889 338.742 128.822 338.822 128.771C338.902 128.719 338.991 128.684 339.085 128.668C339.178 128.652 339.274 128.655 339.367 128.677C339.46 128.699 339.547 128.739 339.624 128.795C339.7 128.851 339.765 128.922 339.814 129.004C339.863 129.085 339.894 129.176 339.908 129.27C339.921 129.364 339.915 129.46 339.89 129.552C339.67 130.621 339.36 131.669 338.962 132.685C338.584 133.316 337.167 133.634 334.74 133.634Z" fill="#DEE8F5"/>
<path d="M332.119 131.72H331.158C330.545 131.72 330.048 132.217 330.048 132.83C330.048 133.443 330.545 133.94 331.158 133.94H332.119C332.731 133.94 333.228 133.443 333.228 132.83C333.228 132.217 332.731 131.72 332.119 131.72Z" fill="#C1D8ED"/>
<path d="M243.143 253.746L235.181 249.591C235.181 249.591 242.874 239.541 243.427 238.817L249.903 244.851C249.35 245.573 243.143 253.746 243.143 253.746Z" fill="#E98862"/>
<path d="M223.782 256.914C223.515 256.913 223.251 256.857 223.006 256.749C222.762 256.641 222.542 256.484 222.361 256.288C222.18 256.091 222.041 255.859 221.954 255.607C221.866 255.354 221.832 255.086 221.852 254.82C221.881 254.451 222.015 254.097 222.238 253.801C222.46 253.505 222.763 253.279 223.11 253.15L234.673 249.273C234.897 249.198 235.135 249.174 235.369 249.2C235.604 249.226 235.83 249.302 236.032 249.424C237.622 250.527 239.524 251.091 241.458 251.032C242.965 250.925 244.411 250.397 245.631 249.507C245.738 249.419 245.868 249.363 246.006 249.346C246.144 249.329 246.284 249.352 246.409 249.412C246.534 249.471 246.64 249.565 246.714 249.682C246.788 249.8 246.827 249.936 246.827 250.075V255.73C246.827 255.897 246.794 256.062 246.73 256.217C246.666 256.371 246.572 256.51 246.454 256.628C246.336 256.746 246.196 256.839 246.042 256.903C245.887 256.966 245.722 256.998 245.555 256.998L223.782 256.914Z" fill="#C1D8ED"/>
<path d="M277.801 241.376L274.556 250.804L283.949 254.039L287.195 244.611L277.801 241.376Z" fill="#E98862"/>
<path d="M263.16 256.925C262.893 256.924 262.628 256.867 262.384 256.759C262.139 256.652 261.92 256.494 261.739 256.298C261.558 256.101 261.419 255.869 261.332 255.617C261.244 255.364 261.21 255.096 261.231 254.83C261.26 254.461 261.394 254.107 261.616 253.811C261.839 253.516 262.142 253.29 262.489 253.16L274.053 249.286C274.277 249.212 274.515 249.187 274.749 249.213C274.984 249.239 275.21 249.316 275.412 249.437C277.002 250.54 278.904 251.104 280.838 251.046C282.344 250.939 283.79 250.411 285.011 249.521C285.118 249.433 285.248 249.378 285.386 249.361C285.524 249.344 285.663 249.367 285.789 249.426C285.914 249.486 286.02 249.58 286.094 249.697C286.168 249.814 286.207 249.95 286.207 250.089V255.746C286.207 255.913 286.174 256.078 286.11 256.232C286.046 256.386 285.952 256.526 285.834 256.644C285.716 256.762 285.575 256.855 285.421 256.918C285.267 256.982 285.102 257.014 284.935 257.013L263.16 256.925Z" fill="#C1D8ED"/>
<path d="M296.199 182.157L296.057 182.133C293.859 181.769 291.604 182.258 289.753 183.499C287.902 184.741 286.595 186.641 286.097 188.814L272.849 246.65L289.913 250.56L301.17 201.412C301.288 201.443 301.406 201.473 301.526 201.503C304.354 202.229 307.176 202.971 309.989 203.731C315.609 205.25 321.197 210.149 326.618 211.854L331.895 191.122C325.87 189.932 299.218 182.55 296.199 182.157Z" fill="#262626"/>
<path opacity="0.07" d="M296.199 182.157L296.057 182.133C293.859 181.769 291.604 182.258 289.753 183.499C287.902 184.741 286.595 186.641 286.097 188.814L272.849 246.65L289.913 250.56L301.17 201.412C301.288 201.443 301.406 201.473 301.526 201.503C304.354 202.229 307.176 202.971 309.989 203.731C315.609 205.25 321.197 210.149 326.618 211.854L331.895 191.122C325.87 189.932 299.218 182.55 296.199 182.157Z" fill="black"/>
<path d="M355.281 206.957L356.66 194.073L319.736 190.944L318.755 193.519C309.232 191.268 299.65 186.229 290.013 184.747C288.386 184.496 286.723 184.675 285.187 185.267C283.652 185.858 282.298 186.841 281.26 188.118L234.337 246.13L249.701 253.746L292.324 204.852C299.581 206.334 336.663 221.198 346.458 216.381C351.731 213.788 355.048 209.13 355.281 206.957Z" fill="#262626"/>
<path d="M307.434 157.466C306.207 156.772 302.006 153.619 301.346 154.674C301.166 154.962 301.511 155.551 302.073 156.225C298.882 154.635 297.162 154.246 296.295 155.782C295.291 157.56 294.502 159.277 299.576 162.145C303.413 164.313 306.743 161.861 305.913 159.353L307.434 157.466Z" fill="#E98862"/>
<path d="M283.763 168.597C282.871 167.924 279.139 163.54 278.038 161.09C276.938 158.639 278.022 153.941 284.299 154.482C290.575 155.023 288.273 150.68 291.727 149.566C295.929 148.211 301.558 153.569 302.679 156.028C303.199 157.175 302.821 158.678 300.968 158.574C298.845 158.454 294.759 156.692 293.98 156.626C292.521 156.5 288.749 158.872 288.655 159.959C288.475 162.121 288.448 164.293 288.574 166.458C288.764 168.757 286.138 170.387 283.763 168.597Z" fill="#DEE8F5"/>
<path d="M286.258 157.707C286.357 156.553 285.184 155.508 283.637 155.375C282.091 155.242 280.756 156.07 280.657 157.225C280.557 158.38 281.73 159.424 283.277 159.557C284.824 159.69 286.158 158.862 286.258 157.707Z" fill="#C1D8ED"/>
<path d="M296.393 152.395C296.481 151.373 295.444 150.45 294.076 150.332C292.708 150.214 291.528 150.946 291.44 151.968C291.352 152.989 292.39 153.913 293.757 154.031C295.125 154.149 296.305 153.416 296.393 152.395Z" fill="#C1D8ED"/>
<path d="M321.79 170.612C323.243 157.569 318.586 138.988 334.245 140.241C336.141 140.392 345.342 141.512 352.077 142.342C356.602 142.9 360.145 144.747 362.027 147.157C368.511 155.467 357.879 166.953 356.663 176.818C355.447 186.683 359.36 191.654 358.411 196.675C356.913 204.57 318.487 197.923 317.074 193.159C315.619 188.247 320.091 185.883 321.79 170.612Z" fill="#F96A03"/>
<path d="M334.605 177.839C333.748 177.839 332.903 177.625 332.149 177.216L299.73 164.38L304.643 155.307L333.992 166.479L355.661 148.458L362.256 156.391L337.904 176.645C336.978 177.416 335.811 177.839 334.605 177.839Z" fill="#F96A03"/>
<path d="M291.834 165.623L292.963 164.062C291.736 163.368 287.458 160.574 286.798 161.628C286.618 161.916 286.963 162.504 287.525 163.179C284.334 161.589 282.614 161.201 281.747 162.736C280.743 164.514 279.954 166.231 285.028 169.099C290.102 171.966 295.105 167.836 291.834 165.623Z" fill="#E98862"/>
<path d="M313.396 185.632C312.285 185.632 311.206 185.259 310.331 184.574L286.172 170.368L292.301 162.546L311.543 172.898L324.757 144.654L333.756 148.866L317.896 182.769C317.495 183.624 316.859 184.348 316.062 184.855C315.265 185.362 314.34 185.631 313.396 185.632Z" fill="#F96A03"/>
<path d="M367.982 170.523C379.755 170.565 398.451 182.848 402.832 209.368C408.386 242.993 393.946 256.305 363.399 257.013C341.475 257.522 316.78 258.989 304.535 256.946C274.793 251.381 278.97 211.317 299.008 209.017C363.74 209.017 327.298 170.378 367.982 170.523Z" fill="#C1D8ED"/>
<path d="M43.4013 149.22C43.4013 149.22 46.9682 147.117 45.7017 137.2L53.1893 135.458C53.1893 135.458 52.745 144.421 56.6932 147.081L43.4013 149.22Z" fill="#E98862"/>
<path d="M41.2425 133.534C41.902 136.53 43.679 139.315 46.3867 140.17C49.3421 141.191 52.5023 141.473 55.5918 140.992C63.8274 139.94 61.3412 121.212 57.2515 117.741C53.1618 114.269 41.7482 117.101 40.6236 123.271C40.0422 126.464 40.6146 130.682 41.2425 133.534Z" fill="#E98862"/>
<path d="M57.2425 124.078C55.8671 138.937 53.3951 143.179 45.5592 141.24C43.7614 140.796 39.1413 137.252 37.6245 128.649C37.0874 125.78 37.6185 122.813 39.1176 120.308C40.6166 117.804 42.9801 115.935 45.7622 115.053C60.287 111.107 62.5107 124.395 62.5107 124.395C55.2521 126.616 44.8756 125.805 44.8756 125.805" fill="#0F1011"/>
<path d="M58.6321 132.192C58.6804 132.571 58.6538 132.955 58.5536 133.324C58.4534 133.692 58.2816 134.037 58.0481 134.339C57.8146 134.641 57.5239 134.894 57.1927 135.083C56.8614 135.273 56.496 135.396 56.1174 135.444C55.7388 135.492 55.3544 135.466 54.9861 135.365C54.6178 135.265 54.2729 135.093 53.971 134.86C53.3612 134.388 52.9638 133.694 52.8661 132.929C52.8111 132.549 52.8331 132.162 52.9306 131.792C53.0282 131.421 53.1994 131.073 53.434 130.77C53.6686 130.466 53.9619 130.213 54.2964 130.026C54.6308 129.838 54.9996 129.72 55.3808 129.677C57.4469 129.517 58.4305 130.6 58.6321 132.192Z" fill="#E98862"/>
<path d="M54.7686 132.565C54.9377 132.532 55.0946 132.454 55.2225 132.338C55.3503 132.222 55.4441 132.074 55.4938 131.909C55.6117 131.516 56.8621 122.274 53.2442 116.705C52.6665 115.747 51.8693 114.94 50.9185 114.35C49.9676 113.761 48.8903 113.406 47.7753 113.315C47.6515 113.302 47.5264 113.313 47.407 113.348C47.2877 113.384 47.1764 113.442 47.0798 113.521C46.9831 113.599 46.9028 113.696 46.8435 113.805C46.7843 113.915 46.7472 114.035 46.7345 114.159C46.681 114.68 47.0586 114.671 47.5785 114.727C50.1012 114.988 50.483 115.979 51.6672 117.755C54.8599 122.549 53.7059 131.276 53.6799 131.364C53.6328 131.52 53.6269 131.686 53.6627 131.845C53.6986 132.004 53.7749 132.151 53.8844 132.272C53.9939 132.393 54.1328 132.484 54.2877 132.535C54.4425 132.587 54.608 132.597 54.7681 132.566L54.7686 132.565Z" fill="#C1D8ED"/>
<path d="M53.4287 136.538C55.933 136.538 57.9631 134.508 57.9631 132.003C57.9631 129.498 55.933 127.468 53.4287 127.468C50.9244 127.468 48.8943 129.498 48.8943 132.003C48.8943 134.508 50.9244 136.538 53.4287 136.538Z" fill="#C1D8ED"/>
<path d="M55.0633 136.434C57.5676 136.434 59.5977 134.404 59.5977 131.899C59.5977 129.394 57.5676 127.364 55.0633 127.364C52.559 127.364 50.5289 129.394 50.5289 131.899C50.5289 134.404 52.559 136.434 55.0633 136.434Z" fill="#DEE8F5"/>
<path d="M60.076 138.538C57.6484 138.538 56.2305 138.22 55.8487 137.589C55.4508 136.572 55.1401 135.524 54.92 134.455C54.8816 134.274 54.9158 134.085 55.0153 133.928C55.1148 133.771 55.2716 133.66 55.4522 133.618C55.6328 133.575 55.8228 133.605 55.9816 133.701C56.1403 133.797 56.2551 133.952 56.3015 134.131C56.5008 135.034 56.7473 135.926 57.04 136.803C57.6328 137.129 60.4597 137.174 62.8121 137.011C62.9062 137.003 63.0011 137.013 63.0912 137.041C63.1812 137.07 63.2647 137.116 63.3367 137.177C63.4087 137.239 63.4677 137.314 63.5103 137.398C63.553 137.482 63.5783 137.574 63.5849 137.669C63.5915 137.763 63.5792 137.858 63.5487 137.947C63.5182 138.036 63.4702 138.119 63.4074 138.19C63.3446 138.26 63.2684 138.318 63.1831 138.358C63.0979 138.399 63.0054 138.423 62.911 138.427C61.8499 138.501 60.9049 138.538 60.076 138.538Z" fill="#DEE8F5"/>
<path d="M62.6962 138.844H63.6571C64.2698 138.844 64.7666 138.347 64.7666 137.734C64.7666 137.121 64.2698 136.625 63.6571 136.625H62.6962C62.0835 136.625 61.5867 137.121 61.5867 137.734C61.5867 138.347 62.0835 138.844 62.6962 138.844Z" fill="#C1D8ED"/>
<path d="M173.588 247.976L165.131 253.191C165.131 253.191 157.5 246.181 157.02 245.409L165.461 240.166C165.942 240.94 173.588 247.976 173.588 247.976Z" fill="#E98862"/>
<path d="M184.004 241.651C184.193 241.462 184.341 241.236 184.438 240.988C184.536 240.739 184.582 240.473 184.572 240.206C184.562 239.939 184.498 239.676 184.382 239.435C184.267 239.194 184.103 238.98 183.9 238.805C183.62 238.563 183.277 238.406 182.91 238.353C182.544 238.299 182.17 238.352 181.832 238.504L170.892 243.889C170.68 243.994 170.494 244.144 170.346 244.327C170.197 244.511 170.091 244.724 170.032 244.953C169.679 246.856 168.724 248.595 167.309 249.915C166.163 250.899 164.764 251.542 163.271 251.769C163.133 251.782 163.001 251.834 162.891 251.919C162.781 252.004 162.698 252.118 162.651 252.249C162.604 252.379 162.595 252.521 162.625 252.656C162.655 252.792 162.723 252.916 162.821 253.014L166.8 257.033C166.917 257.151 167.057 257.246 167.211 257.31C167.365 257.374 167.53 257.408 167.697 257.408C167.863 257.409 168.029 257.376 168.183 257.313C168.337 257.249 168.477 257.156 168.595 257.038L184.004 241.651Z" fill="#C1D8ED"/>
<path d="M146.22 250.635L137.016 254.379C135.6 250.895 133.87 246.725 133.545 246.064C133.566 246.106 133.584 246.14 133.599 246.167L142.296 241.362C142.44 241.623 142.878 242.417 146.22 250.635Z" fill="#E98862"/>
<path d="M157.353 256.626C157.62 256.628 157.885 256.576 158.131 256.471C158.376 256.366 158.598 256.212 158.781 256.017C158.965 255.823 159.107 255.593 159.197 255.342C159.288 255.091 159.326 254.823 159.309 254.556C159.285 254.187 159.155 253.832 158.936 253.533C158.717 253.234 158.418 253.004 158.072 252.87L146.559 248.848C146.336 248.771 146.099 248.743 145.864 248.766C145.63 248.789 145.402 248.863 145.199 248.982C143.595 250.065 141.686 250.604 139.753 250.52C138.248 250.394 136.809 249.847 135.6 248.942C135.493 248.852 135.364 248.795 135.226 248.776C135.089 248.758 134.949 248.779 134.823 248.837C134.697 248.895 134.59 248.987 134.514 249.104C134.439 249.22 134.398 249.356 134.396 249.495L134.323 255.15C134.321 255.317 134.352 255.482 134.414 255.637C134.476 255.792 134.568 255.933 134.684 256.052C134.801 256.172 134.94 256.267 135.094 256.332C135.247 256.398 135.412 256.432 135.579 256.434L157.353 256.626Z" fill="#C1D8ED"/>
<path d="M171.136 238.975C168.688 237.906 117.739 189.218 115.634 192.379C99.7099 192.047 83.7586 191.642 67.9758 194.642L73.2539 215.375C85.9937 211.859 99.5888 211.013 112.791 210.048L160.227 252.668L171.136 238.975Z" fill="#262626"/>
<path opacity="0.07" d="M171.136 238.975C168.688 237.906 117.739 189.218 115.634 192.379C99.7099 192.047 83.7586 191.642 67.9758 194.642L73.2539 215.375C85.9937 211.859 99.5888 211.013 112.791 210.048L160.227 252.668L171.136 238.975Z" fill="black"/>
<path d="M148.587 245.387L122.498 196.018C121.582 194.291 120.153 192.891 118.408 192.01C116.663 191.13 114.689 190.812 112.756 191.1C102.077 192.745 91.6858 194.55 81.1153 197.038L80.1355 194.464L43.2102 197.594L44.5894 210.477C45.1571 215.791 53.748 223.585 61.5124 222.323C63.9831 221.736 66.8762 221.799 69.2007 221.184C82.6567 218.028 95.4703 213.865 109.09 211.442L133.242 253.815L148.587 245.387Z" fill="#262626"/>
<path d="M107.595 168.858C107.075 167.174 105.311 167.187 101.855 168.062C102.548 167.522 103.01 167.021 102.895 166.701C102.475 165.531 97.6992 167.717 96.3522 168.134L97.437 170.301C96.0934 172.576 98.8252 175.68 103.036 174.378C108.604 172.655 108.198 170.809 107.595 168.858Z" fill="#E98862"/>
<path d="M117.116 184.045C118.13 183.578 122.71 180.089 124.308 177.929C125.905 175.768 125.844 170.947 119.596 170.141C113.348 169.334 116.52 165.58 113.384 163.757C109.566 161.539 102.928 165.577 101.309 167.741C100.554 168.751 100.604 170.301 102.438 170.593C104.538 170.924 108.906 170.075 109.681 170.176C111.133 170.365 114.315 173.484 114.176 174.566C113.892 176.716 113.456 178.844 112.873 180.933C112.196 183.139 114.415 185.289 117.116 184.045Z" fill="#9E9E9E"/>
<path opacity="0.33" d="M122.569 173.594C122.717 172.444 121.59 171.351 120.05 171.152C118.51 170.953 117.142 171.724 116.994 172.874C116.845 174.023 117.973 175.116 119.513 175.315C121.052 175.514 122.421 174.743 122.569 173.594Z" fill="white"/>
<path opacity="0.33" d="M113.151 166.163C113.282 165.146 112.285 164.179 110.923 164.003C109.562 163.827 108.351 164.509 108.22 165.526C108.089 166.543 109.086 167.51 110.448 167.685C111.809 167.861 113.019 167.18 113.151 166.163Z" fill="white"/>
<path d="M75.8887 174.513C73.3215 161.641 76.3675 142.73 60.8732 145.322C58.9978 145.636 49.9266 147.542 43.2878 148.947C38.8272 149.893 35.4553 152.035 33.788 154.598C28.0405 163.433 39.6187 173.965 41.6763 183.689C43.7339 193.413 40.2627 198.701 41.638 203.622C43.8078 211.359 81.5222 201.438 82.5209 196.571C83.5481 191.555 78.8911 189.581 75.8887 174.513Z" fill="#F96A03"/>
<path d="M62.0471 180.938C61.0439 180.938 60.0625 180.645 59.223 180.096L34.4721 163.9L40.1207 155.266L63.3273 170.45L100.296 165.66L101.404 175.918L62.6011 180.908C62.4171 180.928 62.2321 180.938 62.0471 180.938Z" fill="#F96A03"/>
<path d="M120.504 179.337C119.984 177.652 118.051 177.075 114.594 177.95C115.287 177.411 115.75 176.909 115.635 176.589C115.215 175.419 110.441 177.239 109.094 177.656L109.865 179.422C106.198 180.889 108.948 185.769 115.776 184.266C119.782 183.383 121.105 181.287 120.504 179.337Z" fill="#E98862"/>
<path d="M85.1146 188.775C84.2427 188.775 83.3863 188.545 82.6313 188.109C81.8763 187.673 81.2494 187.046 80.8134 186.291L62.1024 153.876L70.7076 148.907L87.7943 178.512L111.676 175.855L112.775 185.731L85.6648 188.747C85.482 188.766 85.2984 188.776 85.1146 188.775Z" fill="#F96A03"/>
<path d="M28.217 131.541C28.0045 124.522 29.6482 120.286 31.9603 118.05C34.2412 115.845 41.5207 114.264 44.5018 122.995C46.4468 128.691 45.7792 130.64 46.5041 139.61C47.2289 148.579 49.3428 148.589 49.6522 156.84C49.9834 165.612 46.3442 172.426 36.9465 172.271C29.2735 172.145 24.4339 168.407 23.8098 160.692C22.9142 149.618 28.6324 145.297 28.217 131.541Z" fill="#0F1011"/>
<path d="M37.4428 176.383C25.6697 176.425 5.29044 185.214 0.909811 211.732C-4.64416 245.356 16.0677 257.998 40.3436 257.011C62.2543 256.12 86.9626 258.514 99.207 256.47C128.948 250.905 119.782 214.26 104.734 211.381C40.002 211.383 78.1266 176.238 37.4428 176.383Z" fill="#C1D8ED"/>
<path d="M110.686 10.6818V124.887H276.031V10.6818H110.686Z" fill="#F3F5FD"/>
<path d="M151.063 81.3064C168.079 81.3064 181.874 67.5092 181.874 50.4896C181.874 33.4699 168.079 19.6727 151.063 19.6727C134.046 19.6727 120.251 33.4699 120.251 50.4896C120.251 67.5092 134.046 81.3064 151.063 81.3064Z" fill="#DEE8F5"/>
<path d="M180.62 90.7777H121.506V94.1105H180.62V90.7777Z" fill="#DEE8F5"/>
<path d="M265.211 90.7777H206.097V94.1105H265.211V90.7777Z" fill="#DEE8F5"/>
<path d="M171.136 90.7777H121.506V94.1105H171.136V90.7777Z" fill="#9E9E9E"/>
<path d="M238.813 90.7777H206.097V94.1105H238.813V90.7777Z" fill="#262626"/>
<path d="M180.62 99.5917H121.506V102.924H180.62V99.5917Z" fill="#DEE8F5"/>
<path d="M265.211 99.5917H206.097V102.924H265.211V99.5917Z" fill="#DEE8F5"/>
<path d="M151.063 99.5917H121.506V102.924H151.063V99.5917Z" fill="#9E9E9E"/>
<path d="M254.92 99.5917H206.097V102.924H254.92V99.5917Z" fill="#262626"/>
<path d="M180.62 108.939H121.506V112.271H180.62V108.939Z" fill="#DEE8F5"/>
<path d="M265.211 108.939H206.097V112.271H265.211V108.939Z" fill="#DEE8F5"/>
<path d="M173.59 108.939H121.506V112.271H173.59V108.939Z" fill="#9E9E9E"/>
<path d="M243.565 108.939H206.097V112.271H243.565V108.939Z" fill="#262626"/>
<path d="M235.654 81.3064C252.67 81.3064 266.465 67.5092 266.465 50.4896C266.465 33.4699 252.67 19.6727 235.654 19.6727C218.637 19.6727 204.843 33.4699 204.843 50.4896C204.843 67.5092 218.637 81.3064 235.654 81.3064Z" fill="#DEE8F5"/>
<path d="M191.355 45.5758H194.424L191.099 55.7266H187.871L184.559 45.5758H187.64L189.022 50.7205C189.241 51.5031 189.399 52.3016 189.495 53.1088C189.526 52.7851 189.591 52.3802 189.689 51.894C189.787 51.4079 189.873 51.026 189.946 50.7484L191.355 45.5758Z" fill="#C1D8ED"/>
<path d="M202.157 52.6436C202.167 53.2378 202 53.8216 201.678 54.3207C201.337 54.8263 200.857 55.2219 200.296 55.4592C199.627 55.7432 198.906 55.8816 198.179 55.8652C197.609 55.8748 197.039 55.8272 196.478 55.7233C195.984 55.6159 195.504 55.4493 195.049 55.2269V52.7832C195.568 53.0505 196.115 53.261 196.68 53.4112C197.186 53.5536 197.709 53.6295 198.235 53.6369C198.548 53.661 198.861 53.5871 199.13 53.4254C199.219 53.3649 199.291 53.2835 199.341 53.1884C199.39 53.0933 199.415 52.9874 199.414 52.8802C199.417 52.7495 199.377 52.6215 199.3 52.5158C199.197 52.3888 199.073 52.2817 198.932 52.1997C198.763 52.0934 198.313 51.8759 197.582 51.5472C197.048 51.3236 196.548 51.0293 196.093 50.6722C195.776 50.4091 195.524 50.0767 195.357 49.7007C195.188 49.289 195.107 48.8469 195.117 48.4022C195.098 47.9823 195.181 47.5641 195.359 47.1832C195.536 46.8023 195.804 46.4701 196.138 46.2151C196.96 45.6488 197.946 45.3719 198.943 45.4281C200.054 45.4416 201.149 45.6902 202.157 46.1573L201.317 48.2749C200.553 47.8867 199.715 47.6643 198.859 47.6224C198.586 47.6008 198.314 47.6671 198.082 47.8117C198.007 47.864 197.946 47.9335 197.904 48.0145C197.861 48.0955 197.839 48.1855 197.839 48.2768C197.844 48.3842 197.875 48.4888 197.928 48.5818C197.982 48.6749 198.058 48.7537 198.148 48.8116C198.683 49.1428 199.243 49.4306 199.824 49.6723C200.525 49.941 201.15 50.3757 201.646 50.9391C202 51.4351 202.18 52.0346 202.157 52.6436Z" fill="#C1D8ED"/>
<path d="M242.366 35.4581H228.435C227.595 35.458 226.763 35.6234 225.988 35.9447C225.212 36.2661 224.507 36.7371 223.913 37.331C223.32 37.9248 222.849 38.6298 222.527 39.4057C222.206 40.1816 222.041 41.0132 222.041 41.853V48.8494H223.715V43.3602C223.715 42.6885 223.847 42.0234 224.104 41.4028C224.36 40.7822 224.737 40.2183 225.212 39.7434C225.687 39.2685 226.251 38.8919 226.871 38.635C227.492 38.3782 228.157 38.2463 228.828 38.2467L239.068 38.2524C239.892 38.253 240.682 38.5807 241.264 39.1636C241.846 39.7464 242.173 40.5366 242.173 41.3604V45.9132C242.173 46.1854 242.227 46.4551 242.331 46.7066C242.435 46.9582 242.588 47.1867 242.78 47.3793C242.973 47.5718 243.201 47.7245 243.453 47.8286C243.704 47.9328 243.974 47.9864 244.246 47.9863H245.331C245.69 47.9862 246.043 47.8925 246.355 47.7145C246.667 47.5366 246.928 47.2804 247.111 46.9713V48.849H248.759V41.853C248.759 41.0132 248.594 40.1816 248.273 39.4057C247.951 38.6298 247.481 37.9248 246.887 37.331C246.293 36.7371 245.588 36.2661 244.812 35.9447C244.037 35.6234 243.205 35.458 242.366 35.4581Z" fill="#0F1011"/>
<path d="M247.111 43.3607V48.8499H223.716V43.3607C223.715 42.689 223.847 42.0239 224.104 41.4033C224.361 40.7827 224.737 40.2188 225.212 39.7439C225.687 39.269 226.251 38.8923 226.872 38.6355C227.492 38.3787 228.157 38.2467 228.829 38.2472H241.998C242.67 38.2467 243.335 38.3787 243.955 38.6355C244.576 38.8923 245.14 39.269 245.615 39.7439C246.09 40.2188 246.466 40.7827 246.723 41.4033C246.98 42.0239 247.112 42.689 247.111 43.3607Z" fill="#0F1011"/>
<path d="M250.726 48.4363C250.725 47.4343 250.357 46.4674 249.691 45.7193C249.024 44.9711 248.106 44.494 247.111 44.3785V43.3607C247.111 42.0045 246.572 40.7038 245.614 39.7449C244.655 38.7859 243.354 38.2472 241.998 38.2472H228.827C227.471 38.2472 226.171 38.7859 225.212 39.7449C224.253 40.7038 223.715 42.0045 223.715 43.3607V44.4656C222.822 44.6788 222.027 45.1866 221.459 45.9071C220.89 46.6275 220.581 47.5185 220.581 48.4363C220.581 49.3541 220.89 50.2451 221.459 50.9656C222.027 51.686 222.822 52.1938 223.715 52.407V53.512C223.715 54.8681 224.253 56.1688 225.212 57.1278C226.171 58.0867 227.471 58.6255 228.827 58.6255H241.998C242.67 58.6255 243.335 58.4933 243.955 58.2364C244.575 57.9794 245.139 57.6028 245.614 57.1279C246.089 56.6531 246.465 56.0893 246.722 55.4689C246.979 54.8485 247.111 54.1835 247.111 53.512V52.4941C248.107 52.3786 249.025 51.9015 249.691 51.1533C250.357 50.4052 250.725 49.4383 250.726 48.4363Z" fill="#262626"/>
<path opacity="0.08" d="M250.726 48.4363C250.725 47.4343 250.357 46.4674 249.691 45.7193C249.024 44.9711 248.106 44.494 247.111 44.3785V43.3607C247.111 42.0045 246.572 40.7038 245.614 39.7449C244.655 38.7859 243.354 38.2472 241.998 38.2472H228.827C227.471 38.2472 226.171 38.7859 225.212 39.7449C224.253 40.7038 223.715 42.0045 223.715 43.3607V44.4656C222.822 44.6788 222.027 45.1866 221.459 45.9071C220.89 46.6275 220.581 47.5185 220.581 48.4363C220.581 49.3541 220.89 50.2451 221.459 50.9656C222.027 51.686 222.822 52.1938 223.715 52.407V53.512C223.715 54.8681 224.253 56.1688 225.212 57.1278C226.171 58.0867 227.471 58.6255 228.827 58.6255H241.998C242.67 58.6255 243.335 58.4933 243.955 58.2364C244.575 57.9794 245.139 57.6028 245.614 57.1279C246.089 56.6531 246.465 56.0893 246.722 55.4689C246.979 54.8485 247.111 54.1835 247.111 53.512V52.4941C248.106 52.3785 249.024 51.9013 249.691 51.1532C250.357 50.4051 250.725 49.4382 250.726 48.4363Z" fill="black"/>
<path d="M226.431 65.522H244.395C245.895 65.522 247.111 64.3057 247.111 62.8053V53.4164C247.111 51.916 245.895 50.6997 244.395 50.6997H226.431C224.931 50.6997 223.715 51.916 223.715 53.4164V62.8053C223.715 64.3057 224.931 65.522 226.431 65.522Z" fill="#0F1011"/>
<path d="M237.601 46.9216C238.243 46.9216 238.763 46.401 238.763 45.7589C238.763 45.1168 238.243 44.5962 237.601 44.5962C236.959 44.5962 236.438 45.1168 236.438 45.7589C236.438 46.401 236.959 46.9216 237.601 46.9216Z" fill="#0F1011"/>
<path d="M229.529 46.9216C230.171 46.9216 230.691 46.401 230.691 45.7589C230.691 45.1168 230.171 44.5962 229.529 44.5962C228.887 44.5962 228.366 45.1168 228.366 45.7589C228.366 46.401 228.887 46.9216 229.529 46.9216Z" fill="#0F1011"/>
<path d="M227.47 43.5084L231.46 44.3007C231.802 44.3685 232.133 44.1469 232.201 43.8058C232.268 43.4648 232.047 43.1334 231.706 43.0656L227.716 42.2733C227.374 42.2056 227.043 42.4272 226.975 42.7682C226.908 43.1093 227.129 43.4407 227.47 43.5084Z" fill="#0F1011"/>
<path d="M239.693 42.2724L235.703 43.0646C235.362 43.1324 235.14 43.4638 235.208 43.8049C235.276 44.1459 235.607 44.3675 235.948 44.2998L239.938 43.5075C240.279 43.4397 240.501 43.1083 240.433 42.7673C240.366 42.4262 240.034 42.2046 239.693 42.2724Z" fill="#0F1011"/>
<path opacity="0.08" d="M233.219 49.0529H233.22C233.541 49.0529 233.801 48.7927 233.801 48.4718V47.5027C233.801 47.1817 233.541 46.9216 233.22 46.9216H233.219C232.898 46.9216 232.638 47.1817 232.638 47.5027V48.4718C232.638 48.7927 232.898 49.0529 233.219 49.0529Z" fill="black"/>
<path d="M233.06 55.2491L238.078 54.2724C238.179 54.2581 238.276 54.224 238.363 54.1722C238.451 54.1204 238.527 54.0519 238.588 53.9705C238.65 53.8891 238.694 53.7965 238.719 53.6979C238.745 53.5993 238.75 53.4968 238.736 53.396C238.721 53.2953 238.687 53.1983 238.636 53.1108C238.584 53.0232 238.515 52.9467 238.434 52.8856C238.353 52.8245 238.26 52.78 238.161 52.7548C238.063 52.7295 237.96 52.7239 237.86 52.7383L232.841 53.7145C232.638 53.7434 232.454 53.852 232.331 54.0164C232.207 54.1807 232.154 54.3874 232.183 54.5909C232.212 54.7944 232.321 54.9781 232.485 55.1015C232.65 55.2249 232.856 55.278 233.06 55.2491Z" fill="white"/>
<path d="M240.576 38.2528C241.399 38.2535 242.189 38.5812 242.771 39.164C243.354 39.7469 243.68 40.537 243.68 41.3609V44.0109C243.68 44.5151 243.881 44.9987 244.237 45.3553C244.594 45.7119 245.077 45.9122 245.581 45.9122C245.831 45.9122 246.078 45.863 246.309 45.7675C246.54 45.6719 246.749 45.5319 246.926 45.3553C247.102 45.1788 247.242 44.9692 247.338 44.7385C247.433 44.5078 247.482 44.2605 247.482 44.0109V38.2472L240.271 36.1868L240.576 38.2528Z" fill="#0F1011"/>
<path d="M142.933 35.4581H142.933C139.057 35.4581 135.915 38.6006 135.915 42.4772V63.3353C135.915 67.2119 139.057 70.3544 142.933 70.3544H142.933C146.809 70.3544 149.951 67.2119 149.951 63.3353V42.4772C149.951 38.6006 146.809 35.4581 142.933 35.4581Z" fill="#0F1011"/>
<path d="M153.977 35.9568H153.977C148.371 35.9568 143.826 40.5026 143.826 46.11V50.8009C143.826 56.4084 148.371 60.9541 153.977 60.9541H153.977C159.584 60.9541 164.129 56.4084 164.129 50.8009V46.11C164.129 40.5026 159.584 35.9568 153.977 35.9568Z" fill="#9E9E9E"/>
<path d="M147.978 49.6399C147.978 47.5833 146.311 45.916 144.255 45.916C142.199 45.916 140.532 47.5833 140.532 49.6399C140.532 51.6966 142.199 53.3638 144.255 53.3638C146.311 53.3638 147.978 51.6966 147.978 49.6399Z" fill="#9E9E9E"/>
<path d="M154.346 49.6127C154.931 49.6127 155.405 49.1386 155.405 48.5537C155.405 47.9688 154.931 47.4946 154.346 47.4946C153.762 47.4946 153.288 47.9688 153.288 48.5537C153.288 49.1386 153.762 49.6127 154.346 49.6127Z" fill="#0F1011"/>
<path d="M161.24 49.6127C161.825 49.6127 162.299 49.1386 162.299 48.5537C162.299 47.9688 161.825 47.4946 161.24 47.4946C160.655 47.4946 160.181 47.9688 160.181 48.5537C160.181 49.1386 160.655 49.6127 161.24 49.6127Z" fill="#0F1011"/>
<path d="M162.514 45.378L158.878 46.0999C158.567 46.1616 158.365 46.4636 158.427 46.7744C158.489 47.0852 158.791 47.2872 159.102 47.2254L162.737 46.5035C163.048 46.4418 163.25 46.1398 163.188 45.829C163.127 45.5182 162.825 45.3162 162.514 45.378Z" fill="#0F1011"/>
<path d="M151.459 46.5037L155.094 47.2255C155.405 47.2873 155.707 47.0854 155.769 46.7745C155.831 46.4637 155.628 46.1617 155.318 46.1L151.682 45.3781C151.371 45.3164 151.069 45.5183 151.008 45.8291C150.946 46.1399 151.148 46.4419 151.459 46.5037Z" fill="#0F1011"/>
<path opacity="0.08" d="M158.027 50.1427C158.027 49.8503 157.79 49.6132 157.498 49.6132C157.206 49.6132 156.969 49.8503 156.969 50.1427V51.0257C156.969 51.3182 157.206 51.5552 157.498 51.5552C157.79 51.5552 158.027 51.3182 158.027 51.0257V50.1427Z" fill="black"/>
<path d="M159.106 53.7325H154.839C154.455 53.7325 154.144 54.0441 154.144 54.4286V54.429C154.144 54.8135 154.455 55.1251 154.839 55.1251H159.106C159.49 55.1251 159.802 54.8135 159.802 54.429V54.4286C159.802 54.0441 159.49 53.7325 159.106 53.7325Z" fill="white"/>
<path d="M164.425 43.6408C164.425 41.0823 163.409 38.6286 161.6 36.8195C159.792 35.0103 157.338 33.994 154.78 33.994H153.025C150.467 33.994 148.013 35.0103 146.205 36.8193C144.396 38.6283 143.38 41.0819 143.38 43.6403V47.8992C143.38 48.2012 143.439 48.5003 143.555 48.7793C143.67 49.0583 143.839 49.3119 144.053 49.5254C144.267 49.739 144.52 49.9084 144.799 50.024C145.078 50.1395 145.377 50.199 145.679 50.199C145.981 50.1991 146.28 50.1396 146.559 50.0241C146.838 49.9085 147.092 49.7392 147.305 49.5256C147.519 49.312 147.688 49.0585 147.804 48.7794C147.919 48.5004 147.979 48.2013 147.979 47.8992V45.5109C147.979 45.0149 148.176 44.5393 148.526 44.1886C148.877 43.8378 149.353 43.6408 149.849 43.6408H164.425Z" fill="#0F1011"/>
</g>
<defs>
<clipPath id="clip0_1_435">
<rect width="404" height="258" fill="white"/>
</clipPath>
</defs>
</svg>
