<svg width="398" height="222" viewBox="0 0 398 222" fill="none" xmlns="http://www.w3.org/2000/svg">
<g clip-path="url(#clip0_1_122)">
<path d="M387.86 85.9615L383.641 96.7599L386.632 97.9295L390.852 87.1311L387.86 85.9615Z" fill="#F96A03"/>
<path d="M124.291 59.4825L121.899 61.626L129.631 70.2625L132.024 68.119L124.291 59.4825Z" fill="#0CBC8B"/>
<path d="M159.742 98.138L150.465 105.089L152.391 107.66L161.667 100.71L159.742 98.138Z" fill="#F96A03"/>
<path d="M267.031 18.3762L264.83 20.716L273.271 28.6616L275.472 26.3218L267.031 18.3762Z" fill="#F96A03"/>
<path d="M205.656 20.9599L199.879 31.0116L202.663 32.6129L208.44 22.5612L205.656 20.9599Z" fill="#0CBC8B"/>
<path d="M289.539 106.918L286.823 108.633L293.008 118.438L295.724 116.723L289.539 106.918Z" fill="#0CBC8B"/>
<path d="M163.593 154.663L160.72 156.099L165.899 166.471L168.773 165.035L163.593 154.663Z" fill="#0CBC8B"/>
<path d="M121.557 127.374L118.229 138.479L121.305 139.402L124.633 128.296L121.557 127.374Z" fill="#F96A03"/>
<path d="M322.613 161.98L312.987 168.438L314.775 171.106L324.401 164.649L322.613 161.98Z" fill="#F96A03"/>
<path d="M324.054 0.000872891L318.278 10.0523L321.063 11.6535L326.839 1.60209L324.054 0.000872891Z" fill="#0CBC8B"/>
<path d="M2.99112 82.2327L-0.000244141 83.4023L4.21908 94.2007L7.21045 93.031L2.99112 82.2327Z" fill="#0CBC8B"/>
<path d="M313.515 68.8924L311.589 71.4641L320.865 78.4148L322.791 75.8431L313.515 68.8924Z" fill="#0CBC8B"/>
<path d="M52.9456 21.5204L44.5048 29.466L46.7058 31.8058L55.1467 23.8602L52.9456 21.5204Z" fill="#F96A03"/>
<path d="M146.438 12.0585L143.654 13.6598L149.43 23.7115L152.215 22.1102L146.438 12.0585Z" fill="#F96A03"/>
<path d="M32.8672 138.263L26.6819 148.067L29.3981 149.782L35.5834 139.977L32.8672 138.263Z" fill="#0CBC8B"/>
<path d="M5.47065 165.122L3.6817 167.791L13.313 174.249L15.102 171.579L5.47065 165.122Z" fill="#F96A03"/>
<path d="M377.053 37.0817L374.268 38.6829L380.045 48.7343L382.829 47.1331L377.053 37.0817Z" fill="#F96A03"/>
<path d="M256.382 64.4743L248.649 73.1108L251.042 75.2542L258.774 66.6177L256.382 64.4743Z" fill="#F96A03"/>
<path d="M188.5 161.822L183.32 172.194L186.194 173.63L191.373 163.258L188.5 161.822Z" fill="#0CBC8B"/>
<path d="M230.537 134.533L227.461 135.456L230.789 146.561L233.865 145.639L230.537 134.533Z" fill="#F96A03"/>
<path d="M231.573 140.871L220.626 132.547C220.385 132.364 220.109 132.233 219.816 132.163C219.522 132.093 219.216 132.085 218.919 132.139C218.622 132.193 218.339 132.308 218.089 132.478C217.839 132.647 217.627 132.867 217.466 133.123C217.184 133.605 217.091 134.174 217.205 134.72C217.319 135.267 217.632 135.752 218.082 136.081L220.43 137.865L210.473 135.642C209.371 135.375 207.847 135.754 207.63 137.011C207.514 137.489 207.565 137.993 207.772 138.439C207.98 138.885 208.332 139.247 208.772 139.467C208.767 139.477 208.763 139.487 208.76 139.498C208.759 139.506 208.759 139.515 208.76 139.523L207.059 139.112C206.744 139.036 206.416 139.031 206.099 139.098C205.782 139.165 205.484 139.302 205.226 139.499C204.969 139.696 204.759 139.947 204.611 140.236C204.463 140.524 204.381 140.842 204.372 141.166C204.367 141.677 204.538 142.173 204.855 142.573C205.172 142.973 205.618 143.251 206.116 143.362L206.838 143.537C206.843 143.56 206.852 143.582 206.864 143.603C206.348 143.598 205.847 143.777 205.45 144.109C205.054 144.44 204.788 144.901 204.701 145.41C204.621 145.97 204.756 146.539 205.077 147.004C205.399 147.469 205.884 147.795 206.435 147.918L208.233 148.353C208.203 148.365 208.177 148.383 208.156 148.407C208.135 148.431 208.12 148.46 208.113 148.491C208.105 148.528 208.109 148.567 208.123 148.602C207.662 148.726 207.255 148.998 206.963 149.376C206.672 149.753 206.512 150.217 206.509 150.694C206.517 151.196 206.693 151.68 207.01 152.069C207.327 152.457 207.766 152.728 208.255 152.836L223.42 156.501C225.542 157.013 227.768 156.881 229.814 156.119C231.859 155.358 233.631 154.003 234.902 152.228C235.998 150.698 236.454 148.8 236.173 146.939C235.893 145.077 234.897 143.398 233.399 142.259L231.573 140.871Z" fill="#E98862"/>
<g opacity="0.2">
<path d="M218.616 141.717C218.604 141.768 218.571 141.812 218.527 141.84C218.482 141.867 218.428 141.876 218.377 141.865L208.911 139.736C208.885 139.73 208.861 139.719 208.839 139.704C208.818 139.689 208.799 139.67 208.785 139.647C208.771 139.625 208.761 139.6 208.757 139.574C208.752 139.548 208.753 139.522 208.759 139.496C208.765 139.47 208.776 139.446 208.791 139.424C208.806 139.403 208.825 139.384 208.848 139.37C208.87 139.356 208.895 139.347 208.921 139.342C208.947 139.338 208.973 139.338 208.999 139.344L218.465 141.473C218.491 141.478 218.515 141.489 218.537 141.504C218.559 141.52 218.577 141.539 218.591 141.562C218.605 141.584 218.615 141.609 218.619 141.635C218.624 141.661 218.623 141.688 218.617 141.714L218.616 141.717Z" fill="#0C0C0C"/>
</g>
<g opacity="0.2">
<path d="M217.794 145.92C217.781 145.971 217.749 146.015 217.703 146.043C217.658 146.07 217.604 146.079 217.553 146.067L206.988 143.693C206.962 143.688 206.938 143.677 206.916 143.662C206.895 143.646 206.876 143.627 206.862 143.605C206.848 143.582 206.838 143.557 206.834 143.531C206.83 143.505 206.83 143.478 206.836 143.453C206.85 143.401 206.882 143.357 206.927 143.329C206.971 143.301 207.025 143.291 207.077 143.301L217.642 145.674C217.668 145.68 217.692 145.691 217.714 145.706C217.735 145.721 217.754 145.741 217.768 145.763C217.782 145.785 217.791 145.81 217.796 145.837C217.8 145.863 217.8 145.889 217.794 145.915V145.92Z" fill="#0C0C0C"/>
</g>
<g opacity="0.2">
<path d="M216.929 150.476C216.917 150.527 216.884 150.571 216.84 150.599C216.795 150.626 216.742 150.635 216.69 150.624L208.263 148.73C208.211 148.719 208.166 148.687 208.137 148.642C208.109 148.597 208.1 148.542 208.111 148.49C208.123 148.438 208.155 148.393 208.2 148.365C208.245 148.336 208.299 148.327 208.351 148.338L216.778 150.232C216.804 150.237 216.829 150.248 216.85 150.263C216.872 150.279 216.89 150.298 216.905 150.32C216.919 150.343 216.928 150.368 216.933 150.394C216.937 150.42 216.936 150.447 216.93 150.473L216.929 150.476Z" fill="#0C0C0C"/>
</g>
<path d="M179.601 83.6166L185.713 71.2949C185.848 71.0242 186.037 70.7844 186.269 70.5908C186.501 70.3972 186.771 70.2541 187.061 70.1705C187.351 70.0869 187.656 70.0648 187.955 70.1054C188.255 70.146 188.542 70.2486 188.8 70.4066C189.267 70.7128 189.603 71.1814 189.744 71.7217C189.885 72.262 189.82 72.8354 189.563 73.3307L188.252 75.9728L196.184 69.558C197.054 68.8291 198.587 68.4913 199.34 69.521C199.656 69.8984 199.834 70.3715 199.846 70.8633C199.858 71.3551 199.704 71.8366 199.407 72.2291C199.416 72.2356 199.424 72.243 199.432 72.2511C199.436 72.2582 199.44 72.2656 199.443 72.2732L200.785 71.1487C201.033 70.9407 201.325 70.7908 201.639 70.7099C201.952 70.629 202.28 70.6191 202.598 70.681C202.916 70.7429 203.217 70.8751 203.477 71.0678C203.738 71.2605 203.952 71.5089 204.104 71.7949C204.335 72.2502 204.403 72.771 204.296 73.2702C204.189 73.7694 203.914 74.2168 203.517 74.5375L202.946 75.0158C202.952 75.0386 202.954 75.0625 202.952 75.0861C203.413 74.8525 203.941 74.7904 204.443 74.9108C204.945 75.0312 205.388 75.3264 205.692 75.7435C206.012 76.2098 206.144 76.7796 206.062 77.339C205.98 77.8985 205.691 78.4064 205.251 78.7616L203.833 79.9491C203.865 79.9463 203.897 79.9512 203.927 79.9634C203.956 79.9755 203.983 79.9946 204.003 80.019C204.027 80.0494 204.041 80.0858 204.044 80.1238C204.512 80.0296 204.997 80.0918 205.426 80.3008C205.856 80.5099 206.204 80.8542 206.418 81.2808C206.634 81.7334 206.691 82.2456 206.58 82.7346C206.469 83.2236 206.196 83.6608 205.805 83.9752L193.846 93.9968C192.172 95.3989 190.119 96.2692 187.948 96.4961C185.777 96.723 183.588 96.2961 181.662 95.2703C180.001 94.386 178.75 92.8886 178.175 91.0964C177.599 89.3042 177.746 87.3582 178.582 85.672L179.601 83.6166Z" fill="#E98862"/>
<g opacity="0.2">
<path d="M191.586 78.6174C191.62 78.6579 191.668 78.6833 191.721 78.6882C191.773 78.6931 191.826 78.677 191.867 78.6435L199.404 72.5319C199.445 72.4983 199.472 72.4497 199.477 72.3967C199.483 72.3437 199.467 72.2907 199.433 72.2493C199.4 72.208 199.351 72.1816 199.298 72.1761C199.245 72.1705 199.192 72.1863 199.151 72.2198L191.614 78.3314C191.573 78.3649 191.547 78.4132 191.541 78.4659C191.535 78.5185 191.551 78.5712 191.584 78.6126L191.586 78.6174Z" fill="#0C0C0C"/>
</g>
<g opacity="0.2">
<path d="M194.188 82.0174C194.222 82.0578 194.271 82.0831 194.324 82.088C194.376 82.0928 194.429 82.0766 194.469 82.0431L202.881 75.2226C202.922 75.1891 202.948 75.1407 202.953 75.0881C202.959 75.0354 202.943 74.9828 202.91 74.9415C202.876 74.902 202.828 74.8769 202.776 74.8714C202.723 74.8659 202.671 74.8803 202.629 74.9118L194.215 81.731C194.174 81.7645 194.148 81.8128 194.142 81.8655C194.137 81.9181 194.152 81.9708 194.185 82.0122L194.188 82.0174Z" fill="#0C0C0C"/>
</g>
<g opacity="0.2">
<path d="M196.986 85.7154C197.02 85.7558 197.069 85.7813 197.121 85.7862C197.174 85.791 197.226 85.775 197.267 85.7415L203.977 80.3009C204.018 80.2674 204.045 80.2188 204.05 80.1658C204.056 80.1128 204.04 80.0598 204.007 80.0184C203.973 79.977 203.924 79.9507 203.871 79.9451C203.818 79.9396 203.765 79.9553 203.724 79.9889L197.013 85.4294C196.972 85.4629 196.946 85.5112 196.94 85.5639C196.934 85.6165 196.95 85.6692 196.983 85.7105L196.986 85.7154Z" fill="#0C0C0C"/>
</g>
<path d="M42.4353 73.0519C42.4353 73.0519 41.5734 85.9897 38.6639 90.6824C30.2868 104.196 27.86 119.397 36.2487 127.34C44.6374 135.282 98.1432 135.392 102.197 117.125C105.609 101.745 98.2861 100.092 96.504 87.4061C95.6979 81.6656 93.4797 69.6283 93.4797 69.6283" fill="#0A0A0A"/>
<path d="M88.349 114.447C88.2566 114.435 87.2317 131.447 67.475 129.964C53.7977 128.938 48.9211 114.422 48.6079 114.422C50.0825 114.108 52.5656 113.652 53.2204 113.302C55.3743 112.145 58.038 110.94 58.7334 106.756C59.1348 104.347 58.4543 92.0085 58.6635 89.5676L79.658 94.2567C79.3645 99.4097 77.3114 111.355 84.5077 113.469C85.7049 113.82 86.9948 114.141 88.349 114.447Z" fill="#E98862"/>
<path opacity="0.5" d="M79.9522 108.588C79.6234 107.528 79.4116 106.435 79.3207 105.329C79.09 102.804 79.1361 100.262 79.458 97.7474C75.1911 97.1712 71.1714 95.4093 67.8556 92.6619C67.4657 94.1021 65.3215 100.395 65.9153 101.764C67.0366 104.351 72.3091 108.588 79.9522 108.588Z" fill="#0C0C0C"/>
<path d="M77.2375 103.288C68.96 104.091 58.2504 100.777 56.0319 89.7503L54.0302 79.8009C51.8116 68.7745 55.8027 58.6701 66.181 56.5805C76.5598 54.4922 86.1156 61.8677 88.3341 72.8945L89.2206 77.2993C90.0717 81.5302 92.0056 101.858 77.2375 103.288Z" fill="#E98862"/>
<path opacity="0.1" d="M71.9758 88.8384C73.338 88.6758 74.3456 87.7338 74.2264 86.7344C74.1072 85.7349 72.9063 85.0565 71.5442 85.2191C70.182 85.3817 69.1744 86.3237 69.2936 87.3231C69.4128 88.3226 70.6137 89.001 71.9758 88.8384Z" fill="#0C0C0C"/>
<path opacity="0.1" d="M86.3693 84.8427C86.4898 85.8407 87.6922 86.5182 89.0544 86.3575C89.2897 86.3293 89.5216 86.2766 89.7461 86.2005C89.8095 85.0105 89.8131 83.866 89.7786 82.8061C89.4003 82.7114 89.0076 82.6884 88.6208 82.7383C87.2586 82.8989 86.2513 83.8407 86.3693 84.8427Z" fill="#0C0C0C"/>
<path opacity="0.5" d="M80.3505 87.9274C80.3572 87.9267 80.3639 87.9257 80.3706 87.9242C80.7912 87.8365 81.2067 87.7256 81.6151 87.5921C82.2246 87.388 83.0203 87.0531 82.9111 86.5017C82.785 85.8736 79.6993 79.4411 79.3492 78.7106C79.3349 78.6776 79.314 78.6478 79.288 78.6231C79.2619 78.5984 79.231 78.5792 79.1973 78.5666C79.1637 78.5541 79.1278 78.5484 79.0919 78.5501C79.056 78.5517 79.0208 78.5606 78.9883 78.5761C78.9559 78.5917 78.927 78.6136 78.9033 78.6406C78.8795 78.6677 78.8615 78.6992 78.8502 78.7333C78.8389 78.7675 78.8346 78.8035 78.8376 78.8394C78.8406 78.8752 78.8507 78.9101 78.8675 78.9419C80.1831 81.6812 82.302 86.1852 82.3871 86.6081C82.3205 86.8053 81.3096 87.1905 80.2662 87.4009C80.2316 87.4065 80.1984 87.4188 80.1686 87.4373C80.1387 87.4557 80.1128 87.4798 80.0923 87.5082C80.0718 87.5367 80.057 87.5689 80.049 87.603C80.0409 87.6371 80.0396 87.6725 80.0452 87.7071C80.0508 87.7417 80.0631 87.7749 80.0815 87.8048C80.0999 87.8346 80.124 87.8606 80.1525 87.8811C80.1809 87.9016 80.2131 87.9163 80.2472 87.9244C80.2813 87.9325 80.3167 87.9338 80.3513 87.9282L80.3505 87.9274Z" fill="#0C0C0C"/>
<path d="M45.749 83.3732L55.0535 81.5551C62.082 78.615 64.0761 66.3616 64.0761 66.3616C64.0761 66.3616 72.7503 74.6254 93.4814 69.6283C93.4814 69.6283 88.9781 40.6782 58.3668 49.4677C48.4967 52.301 41.5051 62.3652 42.5449 75.6953C43.2736 85.0342 45.749 83.3732 45.749 83.3732Z" fill="#0A0A0A"/>
<path d="M57.3523 92.98C54.1984 93.6149 50.9626 90.7543 50.3266 87.5985C49.6907 84.4427 51.8988 82.1889 55.0527 81.5535L57.1034 83.3407L60.0635 92.4334L57.3523 92.98Z" fill="#E98862"/>
<path d="M81.585 73.5809C82.3741 73.0227 83.2969 72.6835 84.2596 72.5977C84.7433 72.5513 85.2313 72.5784 85.7069 72.6781C86.1865 72.7758 86.652 72.9334 87.0924 73.1471L87.106 73.1536C87.1548 73.1751 87.2101 73.1767 87.2601 73.158C87.31 73.1393 87.3507 73.1018 87.3734 73.0535C87.3961 73.0052 87.399 72.9499 87.3816 72.8995C87.3641 72.8491 87.3276 72.8075 87.2798 72.7837C86.8132 72.5372 86.3173 72.3505 85.804 72.2279C85.2872 72.1022 84.7544 72.0549 84.2235 72.0877C83.1481 72.1471 82.1083 72.4938 81.2124 73.0917C81.179 73.1143 81.1504 73.1433 81.1282 73.177C81.106 73.2108 81.0907 73.2485 81.0832 73.2882C81.0756 73.3278 81.0759 73.3685 81.0841 73.4081C81.0923 73.4476 81.1082 73.4851 81.1309 73.5184C81.1536 73.5518 81.1827 73.5804 81.2164 73.6025C81.2502 73.6246 81.288 73.6398 81.3276 73.6473C81.3672 73.6548 81.408 73.6543 81.4475 73.646C81.4869 73.6377 81.5244 73.6217 81.5577 73.5989L81.5649 73.5941L81.585 73.5809Z" fill="#0C0C0C"/>
<path d="M73.0855 74.756C72.0289 74.5457 70.9353 74.6229 69.9187 74.9797C69.4162 75.1528 68.9425 75.4004 68.5135 75.7142C68.0862 76.024 67.6996 76.3864 67.3629 76.7929C67.3289 76.8333 67.3119 76.8853 67.3154 76.938C67.3189 76.9908 67.3426 77.0401 67.3817 77.0756C67.4207 77.1112 67.472 77.1303 67.5248 77.1289C67.5776 77.1274 67.6278 77.1056 67.6648 77.068L67.6757 77.0568C68.0006 76.6907 68.3701 76.3668 68.7757 76.0929C69.1771 75.819 69.6175 75.6074 70.0821 75.4652C71.0042 75.1754 71.9866 75.1352 72.9293 75.3487L72.9526 75.3548C73.0317 75.3739 73.1152 75.3609 73.1847 75.3185C73.2542 75.2761 73.304 75.2078 73.3232 75.1287C73.3423 75.0495 73.3293 74.966 73.2869 74.8965C73.2445 74.827 73.1762 74.7771 73.0971 74.758L73.0855 74.756Z" fill="#0C0C0C"/>
<path d="M55.0599 81.4017C61.3144 79.0724 63.39 74.7519 64.0292 71.5367C64.4428 69.3924 64.4041 67.1853 63.9156 65.0568L63.7221 65.1102C64.2033 67.2109 64.2405 69.389 63.8313 71.505C63.2001 74.6676 61.1542 78.919 54.9897 81.2142L55.0599 81.4017Z" fill="#0C0C0C"/>
<path d="M104.439 116.47L163.828 136.328L146.391 144.081L176.004 83.3105L200.206 94.5932L172.731 156.36C171.341 159.484 168.874 162.003 165.781 163.457C162.688 164.911 159.175 165.204 155.885 164.281L155.294 164.113L95.007 147.182L104.439 116.47Z" fill="#F96A03"/>
<path d="M67.1064 125.711C53.4195 125.065 52.8434 113.445 52.8434 113.445C52.8434 113.445 46.0618 113.883 41.5537 114.493C34.1731 115.492 29.3041 117.996 25.4291 121.871C21.8247 125.477 19.6302 129.379 21.9523 154.285C23.6337 172.32 22.4506 211.988 22.4506 211.988H105.856C105.856 211.988 111.68 154.679 112.371 146.562C113.688 131.064 117.411 127.643 109.868 119.66C104.398 113.87 90.2764 113.445 84.5924 113.445C84.4997 113.445 85.7458 126.59 67.1064 125.711Z" fill="#F96A03"/>
<path d="M83.1251 90.1009C80.4357 91.4688 77.3673 91.9014 74.4047 91.3302C74.3022 91.311 74.1963 91.3213 74.0994 91.3601C74.0025 91.3988 73.9186 91.4643 73.8575 91.5489C73.7964 91.6336 73.7606 91.7339 73.7544 91.8381C73.7482 91.9423 73.7717 92.0461 73.8222 92.1374C74.7055 93.6941 76.8003 96.3543 80.3943 95.27C82.7148 94.5696 83.592 92.1816 83.9172 90.7041C83.9394 90.6019 83.932 90.4955 83.8959 90.3974C83.8598 90.2992 83.7964 90.2134 83.7132 90.1501C83.63 90.0868 83.5305 90.0485 83.4263 90.0398C83.3221 90.031 83.2176 90.0522 83.1251 90.1009Z" fill="white"/>
<path d="M83.2933 78.1363C84.011 78.1363 84.5928 77.5542 84.5928 76.8363C84.5928 76.1183 84.011 75.5363 83.2933 75.5363C82.5755 75.5363 81.9937 76.1183 81.9937 76.8363C81.9937 77.5542 82.5755 78.1363 83.2933 78.1363Z" fill="#0C0C0C"/>
<path d="M70.806 80.323C71.5237 80.323 72.1055 79.741 72.1055 79.023C72.1055 78.3051 71.5237 77.723 70.806 77.723C70.0882 77.723 69.5064 78.3051 69.5064 79.023C69.5064 79.741 70.0882 80.323 70.806 80.323Z" fill="#0C0C0C"/>
<path d="M112.185 152.208C112.177 152.209 112.168 152.209 112.16 152.208C112.107 152.202 112.059 152.174 112.026 152.132C111.994 152.091 111.979 152.037 111.986 151.985L113.277 141.512C113.28 141.485 113.288 141.46 113.301 141.437C113.314 141.413 113.331 141.393 113.352 141.377C113.373 141.361 113.397 141.349 113.422 141.342C113.448 141.335 113.474 141.333 113.501 141.337C113.527 141.34 113.552 141.349 113.575 141.362C113.598 141.375 113.618 141.392 113.634 141.413C113.651 141.434 113.663 141.458 113.67 141.483C113.677 141.509 113.679 141.535 113.675 141.561L112.384 152.034C112.377 152.082 112.354 152.126 112.317 152.158C112.281 152.191 112.234 152.208 112.185 152.208Z" fill="#0C0C0C"/>
<path d="M323.303 71.3965C323.303 71.3965 318.328 65.8074 318.905 55.3404C319.352 47.236 325.601 53.7902 325.601 53.7902C325.601 53.7902 325.98 47.9577 330.004 49.3464C334.029 50.7352 335.159 57.1665 335.159 57.1665" fill="#0C0C0C"/>
<path d="M351.264 54.2765C351.264 54.2765 371.359 60.5733 358.39 86.927L356.549 86.686L352.811 86.1981" fill="#0C0C0C"/>
<path d="M322.678 114.404C322.77 114.392 323.791 131.348 343.482 129.87C357.114 128.848 361.975 114.38 362.287 114.38C360.818 114.067 358.342 113.613 357.69 113.265C355.543 112.111 352.887 110.91 352.195 106.741C351.797 104.337 352.473 92.0418 352.265 89.6097L331.34 94.2816C331.632 99.4173 333.679 111.323 326.506 113.431C325.313 113.779 324.026 114.1 322.678 114.404Z" fill="#E98862"/>
<path opacity="0.52" d="M331.047 108.565C331.374 107.508 331.585 106.419 331.676 105.316C331.906 102.8 331.86 100.266 331.539 97.7599C335.792 97.1858 339.799 95.4299 343.104 92.6916C343.492 94.127 345.63 100.399 345.038 101.763C343.92 104.342 338.664 108.565 331.047 108.565Z" fill="#0C0C0C"/>
<path d="M333.556 102.823C341.796 103.711 352.505 100.526 354.836 89.5603L356.939 79.666C359.267 68.7022 355.401 58.5869 345.08 56.3922C334.759 54.1974 325.155 61.4464 322.825 72.4118L321.894 76.7921C321.601 78.3016 321.41 79.8294 321.325 81.3648C321.068 85.421 320.694 91.5916 322.565 96.1892C324.331 100.53 328.291 102.255 333.556 102.823Z" fill="#E98862"/>
<path d="M327.01 77.5612C327.727 77.5612 328.309 76.9791 328.309 76.2612C328.309 75.5432 327.727 74.9612 327.01 74.9612C326.292 74.9612 325.71 75.5432 325.71 76.2612C325.71 76.9791 326.292 77.5612 327.01 77.5612Z" fill="#0C0C0C"/>
<path d="M339.353 78.8612C340.07 78.8612 340.652 78.2791 340.652 77.5612C340.652 76.8432 340.07 76.2612 339.353 76.2612C338.635 76.2612 338.053 76.8432 338.053 77.5612C338.053 78.2791 338.635 78.8612 339.353 78.8612Z" fill="#0C0C0C"/>
<path d="M353.485 92.7647C356.622 93.4318 359.878 90.6157 360.545 87.478C361.211 84.3403 359.036 82.0696 355.9 81.4025L353.837 83.1612L350.788 92.1912L353.485 92.7647Z" fill="#E98862"/>
<path d="M351.366 87.0864C351.366 87.0864 353.404 71.319 348.88 69.4182C345.869 68.1524 337.364 71.0897 330.578 68.3375C327.609 67.1327 324.527 67.3134 323.939 68.7122C323.705 69.266 323.436 60.5857 329.524 55.2524C334.37 51.0058 347.244 52.101 352.645 54.8874C367.6 62.6018 356.414 82.217 356.414 82.217L354.638 87.4378L351.366 87.0864Z" fill="#0C0C0C"/>
<g opacity="0.52">
<path d="M330.391 88.2145L330.37 88.2113C329.359 87.9989 327.686 87.5286 327.844 86.7732C327.976 86.1463 331.112 79.7375 331.469 79.009C331.5 78.9463 331.554 78.8984 331.62 78.8758C331.686 78.8532 331.759 78.8577 331.821 78.8885C331.884 78.9192 331.932 78.9736 331.955 79.0396C331.977 79.1057 331.973 79.178 331.942 79.2407C330.551 82.0784 328.449 86.4551 328.359 86.8812C328.421 87.082 329.431 87.476 330.478 87.6957C330.543 87.7104 330.601 87.7498 330.639 87.8057C330.676 87.8617 330.691 87.9299 330.68 87.9964C330.669 88.0629 330.632 88.1226 330.579 88.1631C330.525 88.2037 330.457 88.2221 330.391 88.2145Z" fill="#0C0C0C"/>
</g>
<path d="M330.157 72.1945C329.164 71.693 328.053 71.4686 326.943 71.5451C326.397 71.5795 325.86 71.6955 325.348 71.8893C324.843 72.0787 324.363 72.3313 323.92 72.6411C323.846 72.6882 323.794 72.7626 323.774 72.8481C323.755 72.9336 323.769 73.0234 323.815 73.0981C323.861 73.1729 323.935 73.2265 324.02 73.2475C324.105 73.2684 324.195 73.255 324.271 73.2102L324.294 73.1969C324.7 72.9452 325.135 72.7455 325.591 72.6026C326.04 72.459 326.508 72.3844 326.98 72.3813C327.911 72.3676 328.83 72.6005 329.643 73.0564L329.674 73.0744C329.73 73.1084 329.793 73.1307 329.859 73.1401C329.925 73.1495 329.991 73.1459 330.056 73.1294C330.12 73.1129 330.18 73.0839 330.233 73.044C330.286 73.0041 330.33 72.9542 330.364 72.897C330.397 72.8399 330.419 72.7767 330.428 72.711C330.437 72.6454 330.433 72.5786 330.416 72.5145C330.399 72.4505 330.37 72.3904 330.33 72.3377C330.289 72.2851 330.239 72.2409 330.182 72.2078L330.157 72.1945Z" fill="#0C0C0C"/>
<path d="M337.588 74.2038C338.491 73.9721 339.439 73.983 340.336 74.2355C340.79 74.3599 341.223 74.5523 341.62 74.8062C342.024 75.0616 342.394 75.3667 342.721 75.7142L342.739 75.7323C342.801 75.7923 342.884 75.8261 342.97 75.8266C343.056 75.8271 343.139 75.7944 343.202 75.7351C343.265 75.6758 343.302 75.5946 343.306 75.5085C343.31 75.4224 343.281 75.338 343.225 75.2728C342.877 74.8598 342.478 74.4924 342.038 74.1793C341.594 73.8608 341.104 73.6106 340.585 73.4371C339.532 73.0773 338.402 73.0079 337.312 73.2363C337.248 73.2503 337.187 73.277 337.133 73.3146C337.078 73.3523 337.032 73.4002 336.997 73.4558C336.925 73.5679 336.9 73.7041 336.928 73.8343C336.957 73.9645 337.036 74.0781 337.148 74.1501C337.26 74.2221 337.396 74.2466 337.526 74.2182L337.552 74.2118L337.588 74.2038Z" fill="#0C0C0C"/>
<path d="M328.8 90.6471C331.727 91.3787 334.815 91.1136 337.574 89.8937C337.67 89.852 337.776 89.8384 337.879 89.8544C337.982 89.8705 338.078 89.9155 338.157 89.9843C338.235 90.0531 338.292 90.1428 338.322 90.243C338.351 90.3431 338.352 90.4496 338.323 90.5499C337.809 92.2651 336.364 95.329 332.618 95.0752C330.2 94.9121 328.811 92.7808 328.162 91.4137C328.117 91.3189 328.1 91.2133 328.113 91.1092C328.127 91.0052 328.169 90.907 328.236 90.8264C328.303 90.7458 328.392 90.6861 328.492 90.6543C328.592 90.6226 328.699 90.62 328.8 90.6471Z" fill="white"/>
<path d="M340.415 57.4989C341.814 54.2146 341.139 50.7816 338.909 49.831C336.678 48.8805 333.736 50.7723 332.338 54.0566C330.939 57.3409 331.613 60.7739 333.844 61.7245C336.075 62.675 339.017 60.7832 340.415 57.4989Z" fill="#0C0C0C"/>
<path d="M343.789 125.711C357.475 125.065 358.051 113.445 358.051 113.445C358.051 113.445 364.833 113.883 369.342 114.493C376.722 115.492 381.591 117.996 385.466 121.871C389.071 125.477 391.265 129.379 388.942 154.285C387.261 172.32 388.445 211.988 388.445 211.988H305.039C305.039 211.988 299.215 154.68 298.525 146.562C297.207 131.064 293.484 127.643 301.027 119.66C306.497 113.87 320.618 113.445 326.303 113.445C326.395 113.445 325.15 126.59 343.789 125.711Z" fill="#F96A03"/>
<path d="M298.328 123.249L276.763 168.981L234.238 136.99L217.347 159.458L273.658 201.818C274.162 202.193 274.688 202.536 275.234 202.846C276.843 203.748 278.614 204.324 280.445 204.541C282.276 204.758 284.133 204.612 285.908 204.112C287.683 203.612 289.342 202.766 290.791 201.624C292.239 200.482 293.449 199.066 294.35 197.457L294.594 197.022L327.494 138.279L298.328 123.249Z" fill="#F96A03"/>
<path d="M391.645 212.389H11.8213C11.7148 212.389 11.6127 212.347 11.5374 212.272C11.4621 212.196 11.4198 212.094 11.4198 211.988C11.4198 211.881 11.4621 211.779 11.5374 211.704C11.6127 211.628 11.7148 211.586 11.8213 211.586H391.645C391.751 211.586 391.853 211.628 391.929 211.704C392.004 211.779 392.046 211.881 392.046 211.988C392.046 212.094 392.004 212.196 391.929 212.272C391.853 212.347 391.751 212.389 391.645 212.389Z" fill="#292A2E"/>
<path d="M309.03 152.252H105.638V221.799H309.03V152.252Z" fill="white"/>
<path d="M309.231 222H105.438V152.052H309.231V222ZM105.839 221.598H308.829V152.453H105.839V221.598Z" fill="#0C0C0C"/>
<path d="M95.5951 173.507L108.15 167.898C108.426 167.775 108.725 167.71 109.027 167.709C109.329 167.707 109.628 167.769 109.905 167.889C110.182 168.01 110.431 168.187 110.636 168.409C110.841 168.631 110.998 168.893 111.096 169.179C111.261 169.712 111.222 170.288 110.986 170.794C110.751 171.3 110.336 171.701 109.822 171.918L107.13 173.123L117.331 173.228C118.466 173.22 119.863 173.936 119.788 175.209C119.792 175.701 119.628 176.18 119.325 176.567C119.021 176.954 118.595 177.227 118.117 177.341C118.12 177.351 118.121 177.362 118.122 177.373C118.12 177.382 118.119 177.39 118.116 177.398L119.866 177.385C120.19 177.383 120.51 177.453 120.803 177.591C121.096 177.728 121.355 177.929 121.561 178.179C121.767 178.429 121.914 178.722 121.993 179.036C122.071 179.35 122.079 179.678 122.015 179.996C121.903 180.494 121.624 180.939 121.224 181.256C120.823 181.573 120.327 181.742 119.816 181.737L119.072 181.742C119.062 181.764 119.048 181.783 119.032 181.8C119.535 181.913 119.982 182.202 120.293 182.615C120.603 183.027 120.757 183.537 120.726 184.052C120.676 184.616 120.416 185.139 119.997 185.519C119.578 185.899 119.032 186.106 118.466 186.101L116.617 186.114C116.643 186.132 116.665 186.156 116.68 186.184C116.695 186.212 116.703 186.243 116.704 186.274C116.702 186.312 116.69 186.349 116.668 186.38C117.089 186.605 117.424 186.963 117.621 187.397C117.819 187.832 117.869 188.319 117.763 188.785C117.641 189.271 117.359 189.702 116.962 190.009C116.565 190.315 116.077 190.478 115.575 190.472L99.9743 190.583C97.792 190.598 95.6547 189.962 93.8364 188.754C92.0181 187.547 90.6016 185.824 89.7686 183.806C89.0502 182.066 89.0384 180.115 89.7356 178.366C90.4328 176.618 91.784 175.21 93.5022 174.442L95.5951 173.507Z" fill="#E98862"/>
<g opacity="0.2">
<path d="M108.018 177.285C108.019 177.338 108.04 177.388 108.078 177.425C108.116 177.462 108.166 177.483 108.219 177.483L117.921 177.57C117.974 177.571 118.025 177.55 118.063 177.513C118.101 177.475 118.123 177.424 118.123 177.371C118.124 177.318 118.103 177.267 118.066 177.229C118.029 177.191 117.978 177.169 117.924 177.168L108.223 177.081C108.169 177.081 108.118 177.102 108.081 177.14C108.043 177.177 108.022 177.228 108.022 177.282L108.018 177.285Z" fill="#0C0C0C"/>
</g>
<g opacity="0.2">
<path d="M107.862 181.566C107.862 181.618 107.884 181.669 107.921 181.706C107.959 181.743 108.01 181.764 108.062 181.764L118.89 181.861C118.943 181.861 118.994 181.84 119.031 181.802C119.069 181.765 119.09 181.714 119.09 181.66C119.088 181.608 119.067 181.558 119.029 181.52C118.992 181.483 118.942 181.461 118.89 181.46L108.062 181.362C108.036 181.362 108.009 181.367 107.985 181.377C107.96 181.387 107.938 181.401 107.919 181.42C107.9 181.439 107.885 181.461 107.875 181.485C107.865 181.51 107.86 181.536 107.86 181.563L107.862 181.566Z" fill="#0C0C0C"/>
</g>
<g opacity="0.2">
<path d="M107.665 186.198C107.666 186.25 107.687 186.301 107.725 186.338C107.763 186.375 107.813 186.396 107.866 186.396L116.503 186.474C116.556 186.474 116.607 186.453 116.645 186.416C116.683 186.379 116.705 186.328 116.705 186.275C116.706 186.221 116.685 186.17 116.648 186.132C116.611 186.094 116.56 186.073 116.506 186.072L107.87 185.994C107.816 185.994 107.765 186.015 107.728 186.053C107.69 186.091 107.669 186.142 107.669 186.195L107.665 186.198Z" fill="#0C0C0C"/>
</g>
<path d="M99.1887 195.87L29.5791 211.699C27.2666 211.951 24.9273 211.663 22.7446 210.858C20.562 210.054 18.5954 208.754 16.9992 207.062C15.4029 205.369 14.2205 203.33 13.5446 201.103C12.8687 198.877 12.7177 196.524 13.1036 194.229L21.0695 130.133C21.732 126.194 23.9316 122.68 27.1843 120.363C30.437 118.047 34.4765 117.117 38.414 117.78C42.3516 118.443 45.8647 120.643 48.1805 123.897C50.4963 127.151 51.4251 131.192 50.7626 135.13L46.9266 181.008L95.2892 170.059L99.1887 195.87Z" fill="#F96A03"/>
<path d="M37.1399 182.811C37.0895 182.81 37.0411 182.791 37.0043 182.756C36.9676 182.722 36.9451 182.675 36.9414 182.624C36.9377 182.574 36.9531 182.524 36.9844 182.485C37.0158 182.445 37.0608 182.419 37.1106 182.411L46.8105 180.34C46.8366 180.335 46.8633 180.336 46.889 180.342C46.9147 180.349 46.9389 180.36 46.9601 180.376C46.9814 180.391 46.9993 180.411 47.0128 180.434C47.0262 180.457 47.035 180.482 47.0386 180.508C47.0464 180.561 47.033 180.614 47.0014 180.657C46.9698 180.7 46.9225 180.728 46.87 180.736L37.17 182.808C37.1601 182.81 37.15 182.811 37.1399 182.811Z" fill="#0C0C0C"/>
<path d="M31.6675 211.988C31.6143 211.991 31.5618 211.973 31.5218 211.938C31.4817 211.903 31.4572 211.853 31.4537 211.8C31.4503 211.747 31.4681 211.694 31.5033 211.654C31.5385 211.614 31.5882 211.589 31.6414 211.586L98.7519 195.774L94.9491 170.353L46.8752 180.734C46.8441 180.738 46.8125 180.735 46.7829 180.724C46.7533 180.714 46.7265 180.697 46.7046 180.675C46.6827 180.652 46.6664 180.625 46.657 180.595C46.6477 180.565 46.6455 180.533 46.6508 180.502L49.3474 154.289C49.3515 154.263 49.3607 154.238 49.3746 154.215C49.3885 154.193 49.4067 154.173 49.4283 154.158C49.4498 154.142 49.4743 154.132 49.5001 154.126C49.5259 154.12 49.5526 154.12 49.5787 154.124C49.6312 154.133 49.678 154.163 49.7089 154.206C49.7397 154.249 49.7521 154.303 49.7433 154.356L47.0936 180.299L95.0427 169.91C95.0685 169.903 95.0955 169.901 95.122 169.904C95.1485 169.908 95.1741 169.916 95.1973 169.93C95.2203 169.944 95.2405 169.962 95.2565 169.983C95.2726 170.004 95.2842 170.029 95.2908 170.055L99.1903 195.867C99.2026 195.918 99.1947 195.971 99.1682 196.016C99.1418 196.061 99.0988 196.094 99.0485 196.108L31.6936 211.986C31.685 211.987 31.6762 211.988 31.6675 211.988Z" fill="#0C0C0C"/>
<path d="M315.3 185.555L302.745 179.946C302.469 179.823 302.17 179.758 301.868 179.757C301.566 179.755 301.267 179.817 300.99 179.937C300.713 180.058 300.464 180.235 300.259 180.457C300.054 180.679 299.897 180.941 299.799 181.227C299.634 181.76 299.673 182.336 299.909 182.842C300.144 183.348 300.559 183.749 301.073 183.966L303.765 185.171L293.563 185.276C292.429 185.268 291.032 185.984 291.107 187.258C291.103 187.75 291.267 188.228 291.57 188.615C291.874 189.002 292.3 189.275 292.778 189.389C292.776 189.4 292.774 189.41 292.773 189.421C292.774 189.43 292.776 189.438 292.778 189.446L291.029 189.433C290.705 189.431 290.385 189.501 290.092 189.639C289.799 189.776 289.54 189.977 289.334 190.227C289.128 190.477 288.98 190.77 288.902 191.084C288.823 191.399 288.816 191.726 288.88 192.044C288.992 192.542 289.271 192.987 289.671 193.304C290.071 193.621 290.568 193.79 291.079 193.785L291.823 193.79C291.833 193.812 291.847 193.831 291.863 193.848C291.36 193.962 290.913 194.25 290.602 194.663C290.292 195.075 290.138 195.585 290.169 196.101C290.219 196.664 290.479 197.188 290.898 197.567C291.317 197.947 291.864 198.155 292.429 198.149L294.278 198.162C294.252 198.18 294.231 198.204 294.216 198.232C294.201 198.26 294.192 198.291 294.192 198.323C294.193 198.361 294.205 198.397 294.227 198.428C293.807 198.654 293.472 199.011 293.274 199.446C293.076 199.88 293.026 200.368 293.133 200.833C293.254 201.32 293.536 201.751 293.933 202.057C294.33 202.363 294.819 202.526 295.32 202.52L310.921 202.631C313.104 202.647 315.241 202.01 317.059 200.802C318.878 199.595 320.294 197.871 321.127 195.853C321.845 194.113 321.857 192.162 321.16 190.413C320.463 188.664 319.112 187.257 317.393 186.489L315.3 185.555Z" fill="#E98862"/>
<g opacity="0.2">
<path d="M302.877 189.333C302.876 189.386 302.854 189.436 302.817 189.473C302.779 189.51 302.729 189.531 302.676 189.531L292.974 189.618C292.948 189.618 292.921 189.613 292.897 189.604C292.873 189.594 292.85 189.579 292.832 189.561C292.813 189.542 292.798 189.52 292.787 189.496C292.777 189.472 292.772 189.446 292.771 189.419C292.771 189.393 292.776 189.367 292.786 189.342C292.796 189.318 292.811 189.296 292.829 189.277C292.847 189.258 292.869 189.243 292.894 189.233C292.918 189.222 292.944 189.217 292.97 189.217L302.672 189.129C302.726 189.129 302.777 189.15 302.814 189.188C302.852 189.226 302.873 189.277 302.873 189.33L302.877 189.333Z" fill="#0C0C0C"/>
</g>
<g opacity="0.2">
<path d="M303.033 193.614C303.032 193.666 303.011 193.716 302.974 193.753C302.937 193.79 302.887 193.811 302.834 193.812L292.007 193.909C291.954 193.909 291.903 193.888 291.865 193.851C291.827 193.813 291.806 193.762 291.806 193.709C291.808 193.656 291.83 193.606 291.867 193.568C291.904 193.531 291.954 193.509 292.007 193.508L302.834 193.41C302.887 193.41 302.938 193.431 302.976 193.469C303.014 193.507 303.035 193.558 303.035 193.611L303.033 193.614Z" fill="#0C0C0C"/>
</g>
<g opacity="0.2">
<path d="M303.23 198.246C303.229 198.299 303.208 198.349 303.17 198.386C303.133 198.423 303.082 198.444 303.029 198.444L294.392 198.522C294.366 198.522 294.34 198.517 294.315 198.507C294.291 198.497 294.269 198.483 294.25 198.464C294.231 198.446 294.216 198.424 294.206 198.4C294.195 198.375 294.19 198.349 294.19 198.323C294.19 198.296 294.195 198.27 294.204 198.246C294.214 198.221 294.229 198.199 294.247 198.18C294.266 198.161 294.288 198.146 294.312 198.136C294.336 198.126 294.362 198.12 294.389 198.12L303.026 198.042C303.079 198.042 303.13 198.063 303.168 198.101C303.205 198.139 303.226 198.19 303.226 198.243L303.23 198.246Z" fill="#0C0C0C"/>
</g>
<path d="M315.721 207.918L381.316 211.699C383.628 211.951 385.968 211.663 388.15 210.858C390.333 210.054 392.299 208.754 393.896 207.062C395.492 205.369 396.674 203.33 397.35 201.103C398.026 198.877 398.177 196.524 397.791 194.229L389.827 130.131C389.499 128.181 388.79 126.314 387.741 124.638C386.692 122.961 385.323 121.508 383.712 120.361C382.102 119.214 380.281 118.396 378.354 117.952C376.427 117.509 374.432 117.45 372.482 117.778C370.533 118.106 368.667 118.815 366.991 119.865C365.315 120.914 363.863 122.284 362.716 123.895C361.569 125.506 360.751 127.327 360.308 129.255C359.865 131.182 359.806 133.178 360.134 135.128L363.97 183.817L316.009 182.105L315.721 207.918Z" fill="#F96A03"/>
<path d="M373.755 183.614C373.805 183.613 373.854 183.594 373.891 183.56C373.927 183.525 373.95 183.478 373.954 183.428C373.958 183.378 373.942 183.328 373.911 183.288C373.879 183.249 373.834 183.222 373.785 183.215L364.085 183.151C364.059 183.146 364.032 183.147 364.006 183.154C363.98 183.16 363.956 183.171 363.935 183.187C363.914 183.203 363.896 183.222 363.882 183.245C363.869 183.268 363.86 183.293 363.856 183.319C363.848 183.372 363.862 183.426 363.894 183.468C363.925 183.511 363.973 183.54 364.025 183.548L373.725 183.611C373.735 183.613 373.745 183.614 373.755 183.614Z" fill="#0C0C0C"/>
<path d="M379.228 211.988C379.281 211.991 379.334 211.973 379.374 211.938C379.414 211.903 379.438 211.853 379.442 211.8C379.445 211.746 379.427 211.694 379.392 211.654C379.357 211.614 379.307 211.589 379.254 211.586L316.157 207.824L316.346 182.403L364.019 183.547C364.05 183.551 364.082 183.548 364.111 183.537C364.141 183.527 364.168 183.51 364.189 183.488C364.211 183.465 364.228 183.438 364.237 183.408C364.246 183.378 364.249 183.346 364.243 183.315L361.547 154.291C361.543 154.264 361.534 154.239 361.52 154.217C361.506 154.194 361.488 154.175 361.466 154.16C361.444 154.144 361.42 154.133 361.394 154.128C361.368 154.122 361.342 154.121 361.316 154.126C361.29 154.13 361.265 154.14 361.242 154.154C361.22 154.168 361.201 154.186 361.185 154.207C361.17 154.229 361.159 154.253 361.153 154.279C361.147 154.305 361.146 154.331 361.151 154.357L363.802 183.112L316.255 181.96C316.229 181.952 316.202 181.951 316.176 181.954C316.149 181.957 316.123 181.966 316.1 181.98C316.077 181.993 316.057 182.011 316.041 182.033C316.025 182.054 316.013 182.079 316.007 182.105L315.72 207.917C315.708 207.968 315.716 208.021 315.742 208.066C315.769 208.111 315.811 208.144 315.862 208.158L379.2 211.984C379.21 211.986 379.219 211.987 379.228 211.988Z" fill="#0C0C0C"/>
<path d="M153.858 197.757H148.527L145.536 186.153C145.425 185.74 145.237 184.886 144.97 183.592C144.704 182.298 144.55 181.429 144.509 180.986C144.449 181.529 144.298 182.403 144.056 183.607C143.814 184.811 143.628 185.669 143.498 186.183L140.522 197.757H135.206L129.571 175.668H134.178L137.003 187.725C137.496 189.952 137.854 191.881 138.075 193.512C138.135 192.938 138.274 192.049 138.491 190.846C138.707 189.642 138.911 188.708 139.102 188.043L142.319 175.668H146.745L149.962 188.043C150.102 188.597 150.279 189.443 150.49 190.581C150.702 191.719 150.863 192.696 150.972 193.513C151.073 192.727 151.233 191.747 151.454 190.574C151.675 189.4 151.875 188.451 152.056 187.726L154.866 175.669H159.473L153.858 197.757Z" fill="#0CBC8B"/>
<path d="M174.974 197.757H162.256V175.668H174.974V179.506H166.939V184.356H174.415V188.192H166.939V193.888H174.974V197.757Z" fill="#0CBC8B"/>
<path d="M179.58 197.757V175.668H184.262V193.89H193.219V197.758L179.58 197.757Z" fill="#0CBC8B"/>
<path d="M206.436 179.248C205.642 179.212 204.851 179.375 204.136 179.722C203.421 180.068 202.804 180.589 202.341 181.235C201.374 182.559 200.891 184.405 200.891 186.772C200.891 191.699 202.738 194.162 206.434 194.162C208.363 194.087 210.267 193.694 212.068 192.997V196.925C210.139 197.703 208.075 198.088 205.996 198.059C202.784 198.059 200.327 197.084 198.625 195.135C196.923 193.186 196.072 190.388 196.072 186.742C196.027 184.66 196.455 182.596 197.326 180.706C198.099 179.048 199.354 177.662 200.929 176.732C202.605 175.782 204.507 175.304 206.434 175.35C208.678 175.373 210.888 175.906 212.897 176.906L211.387 180.713C210.575 180.326 209.743 179.983 208.895 179.686C208.105 179.402 207.274 179.254 206.436 179.248Z" fill="#0CBC8B"/>
<path d="M236.809 186.682C236.809 190.338 235.903 193.148 234.09 195.113C232.278 197.077 229.68 198.059 226.296 198.059C222.913 198.059 220.315 197.077 218.503 195.113C216.69 193.148 215.784 190.328 215.784 186.652C215.784 182.975 216.693 180.167 218.511 178.228C220.328 176.29 222.933 175.32 226.326 175.319C229.72 175.319 232.315 176.297 234.113 178.251C235.911 180.206 236.809 183.016 236.809 186.682ZM220.693 186.682C220.693 189.149 221.161 191.008 222.098 192.257C223.035 193.506 224.434 194.13 226.297 194.13C230.033 194.13 231.901 191.647 231.9 186.682C231.9 181.706 230.043 179.218 226.327 179.218C224.464 179.218 223.059 179.845 222.111 181.099C221.164 182.353 220.691 184.214 220.693 186.682Z" fill="#0CBC8B"/>
<path d="M250.735 197.757L245.418 180.427H245.282C245.473 183.952 245.569 186.304 245.569 187.482V197.757H241.385V175.668H247.759L252.985 192.56H253.076L258.619 175.668H264.993V197.757H260.628V187.301C260.628 186.808 260.635 186.239 260.65 185.594C260.665 184.949 260.733 183.236 260.854 180.457H260.718L255.024 197.757H250.735Z" fill="#0CBC8B"/>
<path d="M283.268 197.757H270.55V175.668H283.268V179.506H275.233V184.356H282.71V188.192H275.233V193.888H283.268V197.757Z" fill="#0CBC8B"/>
</g>
<defs>
<clipPath id="clip0_1_122">
<rect width="398" height="222" fill="white"/>
</clipPath>
</defs>
</svg>
