<svg width="398" height="276" viewBox="0 0 398 276" fill="none" xmlns="http://www.w3.org/2000/svg">
<g clip-path="url(#clip0_1_252)">
<path opacity="0.2" d="M119.025 35.7814L118.742 35.7101L28.9281 223.547L345.542 247.963L345.899 247.99L357.5 95.5089L357.523 95.2091L119.025 35.7814ZM209.979 156.578L30.1742 222.595L119.008 36.8087L209.979 156.578ZM210.506 157.144L344.249 247.146L31.1348 223.002L210.506 157.144ZM210.671 156.311L119.836 36.7168L356.013 95.5659L210.671 156.311ZM345.26 246.968L211.302 156.82L356.743 96.034L345.26 246.968Z" fill="#367CFF"/>
<path d="M397.966 98.6844C397.68 105.916 395.645 112.97 392.036 119.245C388.427 125.52 383.351 130.829 377.241 134.718C371.132 138.607 364.171 140.96 356.953 141.577C349.734 142.194 342.474 141.056 335.792 138.26C332.658 136.948 329.686 135.28 326.934 133.289C321.674 129.496 317.296 124.612 314.099 118.972V118.967C310.691 112.935 308.73 106.196 308.369 99.279C308.008 92.3619 309.258 85.4554 312.02 79.1022C314.781 72.7489 318.981 67.122 324.287 62.6635C329.593 58.2049 335.862 55.0363 342.601 53.4064C349.34 51.7765 356.366 51.7299 363.126 53.2701C369.886 54.8103 376.196 57.8955 381.562 62.2831C386.927 66.6708 391.2 72.2415 394.047 78.5575C396.893 84.8734 398.234 91.7627 397.965 98.684L397.966 98.6844Z" fill="white"/>
<path opacity="0.09" d="M397.966 98.6844C397.68 105.916 395.645 112.97 392.036 119.245C388.427 125.52 383.351 130.829 377.241 134.718C371.132 138.607 364.171 140.96 356.953 141.577C349.734 142.194 342.474 141.056 335.792 138.26C332.658 136.948 329.686 135.28 326.934 133.289C321.674 129.496 317.296 124.612 314.099 118.972V118.967C310.691 112.935 308.73 106.196 308.369 99.279C308.008 92.3619 309.258 85.4554 312.02 79.1022C314.781 72.7489 318.981 67.122 324.287 62.6635C329.593 58.2049 335.862 55.0363 342.601 53.4064C349.34 51.7765 356.366 51.7299 363.126 53.2701C369.886 54.8103 376.196 57.8955 381.562 62.2831C386.927 66.6708 391.2 72.2415 394.047 78.5575C396.893 84.8734 398.234 91.7627 397.965 98.684L397.966 98.6844Z" fill="#367CFF"/>
<path d="M363.757 62.8306C363.757 62.8306 374.478 62.9618 370.782 77.7216L369.775 77.7708L367.731 77.8702" fill="#0C0C0C"/>
<path d="M351.786 93.2071C351.836 93.2025 352.033 102.409 362.745 102.022C370.161 101.755 373.102 94.0203 373.272 94.0267C372.482 93.8267 371.148 93.5276 370.802 93.3258C369.662 92.656 368.246 91.9499 367.959 89.6763C367.793 88.3659 368.419 81.7198 368.357 80.3983L356.908 82.4891C356.958 85.2774 357.818 91.7695 353.883 92.7601C353.228 92.9241 352.524 93.0706 351.786 93.2071Z" fill="#E98862"/>
<path opacity="0.52" d="M356.448 90.2199C356.648 89.6544 356.785 89.0686 356.858 88.4732C357.035 87.1149 357.064 85.7413 356.942 84.3769C359.261 84.1553 361.472 83.2883 363.322 81.8745C363.503 82.6587 364.53 86.103 364.179 86.8295C363.519 88.2033 360.58 90.3803 356.448 90.2199Z" fill="#0C0C0C"/>
<path d="M359.047 88.5933C363.535 88.2725 368.949 85.543 369.137 79.4676L369.307 73.9868C369.495 67.9125 366.452 62.8894 360.728 62.7126C355.003 62.5344 350.571 67.3275 350.383 73.4018L350.308 75.8283C350.297 76.6622 350.342 77.4959 350.445 78.3237C350.699 80.5124 351.093 83.8404 352.536 86.113C353.898 88.2582 356.179 88.7976 359.047 88.5933Z" fill="#E98862"/>
<path d="M368.724 81.3084C370.464 81.3619 371.932 79.546 371.986 77.8082C372.04 76.0704 370.659 75.068 368.919 75.0142L367.986 76.1509L367.228 81.2621L368.724 81.3084Z" fill="#E98862"/>
<path d="M350.678 80.1581C350.992 80.5304 351.394 80.8182 351.848 80.9954C352.303 81.1726 352.794 81.2335 353.278 81.1726C354.312 81.0425 354.999 81.4667 355.863 81.3815C356.588 81.3102 356.713 80.9755 357.951 80.9024C362.728 80.6197 366.313 80.3188 366.545 74.3304L369.585 71.633C369.585 71.633 370.944 88.2276 361.959 90.4334C356.438 91.788 351.26 91.2929 350.594 86.113C350.053 81.9041 350.678 80.1581 350.678 80.1581Z" fill="#0C0C0C"/>
<path d="M352.941 76.6924C353.331 76.6924 353.647 76.3769 353.647 75.9877C353.647 75.5985 353.331 75.2829 352.941 75.2829C352.551 75.2829 352.236 75.5985 352.236 75.9877C352.236 76.3769 352.551 76.6924 352.941 76.6924Z" fill="#0C0C0C"/>
<path d="M359.244 76.5613C359.633 76.5613 359.949 76.2457 359.949 75.8565C359.949 75.4673 359.633 75.1518 359.244 75.1518C358.854 75.1518 358.538 75.4673 358.538 75.8565C358.538 76.2457 358.854 76.5613 359.244 76.5613Z" fill="#0C0C0C"/>
<path d="M367.044 78.483C367.044 78.483 366.613 69.8756 364.013 69.297C362.281 68.9117 358.022 71.2979 354.131 70.483C352.429 70.1266 350.8 70.5187 350.62 71.3222C350.549 71.6401 349.202 68.8201 351.941 65.3887C354.121 62.6567 361.21 61.8881 364.363 62.8541C373.096 65.5298 369.271 75.3995 369.271 75.3995L368.826 78.3561L367.044 78.483Z" fill="#0C0C0C"/>
<path d="M371.012 71.5425C373.582 71.5425 375.666 69.461 375.666 66.8933C375.666 64.3257 373.582 62.2442 371.012 62.2442C368.442 62.2442 366.358 64.3257 366.358 66.8933C366.358 69.461 368.442 71.5425 371.012 71.5425Z" fill="#0C0C0C"/>
<g opacity="0.52">
<path d="M355.948 81.1049H355.937C355.376 81.0888 354.438 80.9997 354.449 80.5808C354.459 80.2336 355.516 76.5128 355.637 76.0893C355.647 76.0529 355.672 76.0221 355.705 76.0037C355.738 75.9852 355.777 75.9807 355.813 75.9911C355.85 76.0014 355.881 76.0258 355.899 76.0589C355.918 76.0919 355.922 76.1309 355.912 76.1673C355.442 77.8153 354.741 80.3527 354.734 80.5876C354.787 80.6881 355.364 80.8015 355.945 80.8183C355.982 80.8178 356.019 80.8324 356.046 80.8589C356.073 80.8853 356.089 80.9214 356.089 80.9592C356.089 80.9971 356.075 81.0335 356.048 81.0605C356.022 81.0876 355.986 81.103 355.948 81.1034V81.1049Z" fill="#0C0C0C"/>
</g>
<path d="M354.241 73.5932C353.662 73.4219 353.047 73.4096 352.461 73.5576C352.173 73.6284 351.897 73.742 351.643 73.8948C351.391 74.0446 351.159 74.2256 350.952 74.4335C350.917 74.4655 350.895 74.5105 350.892 74.5584C350.89 74.6064 350.906 74.6534 350.938 74.6892C350.97 74.725 351.015 74.7466 351.063 74.7492C351.111 74.7519 351.158 74.7354 351.194 74.7033L351.205 74.694C351.398 74.5205 351.612 74.3719 351.841 74.2517C352.067 74.132 352.31 74.0471 352.562 74C353.058 73.903 353.571 73.9388 354.049 74.1037L354.068 74.1105C354.101 74.1236 354.137 74.1298 354.174 74.1288C354.21 74.1278 354.245 74.1196 354.278 74.1047C354.311 74.0898 354.341 74.0685 354.366 74.042C354.39 74.0155 354.409 73.9844 354.422 73.9505C354.434 73.9165 354.44 73.8804 354.438 73.8443C354.437 73.8082 354.428 73.7728 354.413 73.7401C354.397 73.7074 354.375 73.6781 354.348 73.6539C354.321 73.6298 354.29 73.6112 354.256 73.5993L354.241 73.5932Z" fill="#0C0C0C"/>
<path d="M358.398 74.1044C358.857 73.8935 359.365 73.8081 359.868 73.8567C360.123 73.879 360.373 73.9399 360.61 74.0374C360.85 74.1347 361.077 74.2618 361.286 74.4156L361.297 74.4235C361.336 74.4488 361.383 74.4582 361.428 74.4499C361.474 74.4416 361.515 74.4162 361.542 74.3789C361.57 74.3416 361.582 74.2951 361.576 74.2492C361.57 74.2033 361.547 74.1613 361.511 74.1319C361.285 73.9451 361.037 73.7875 360.771 73.6628C360.503 73.5355 360.218 73.4491 359.924 73.4065C359.326 73.3165 358.716 73.3888 358.156 73.6157C358.09 73.6441 358.038 73.6972 358.011 73.7635C357.985 73.8299 357.985 73.9041 358.012 73.9702C358.04 74.0363 358.092 74.0889 358.158 74.1167C358.224 74.1445 358.299 74.1452 358.365 74.1187L358.378 74.113L358.398 74.1044Z" fill="#0C0C0C"/>
<path d="M386.978 116.195C386.58 119.205 386.19 123.339 385.842 127.613C384.483 129.058 383.03 130.412 381.492 131.665C380.515 132.458 379.506 133.212 378.466 133.927C372.84 137.763 366.416 140.271 359.678 141.262C352.94 142.253 346.064 141.701 339.571 139.647C339.483 135.677 339.362 130.321 339.242 125.415C339.105 119.755 338.966 114.687 338.891 113.022C338.584 106.414 336.83 102.005 338.156 98.3992C338.552 97.3319 339.189 96.3704 340.018 95.5891C343.107 92.5694 350.779 92.6382 353.856 92.7576C353.909 92.7598 352.959 99.8539 363.083 99.7684C370.524 99.7074 371.082 93.4253 371.082 93.4253C371.082 93.4253 374.749 93.8064 377.184 94.2288C381.167 94.9257 383.757 96.3851 385.772 98.5646C387.652 100.597 388.761 102.754 386.978 116.195Z" fill="#367CFF"/>
<path d="M327.459 93.457L327.765 85.8873C327.772 85.7208 327.744 85.5547 327.684 85.3996C327.623 85.2445 327.53 85.1037 327.412 84.9863C327.293 84.8689 327.152 84.7775 326.996 84.7178C326.84 84.6581 326.674 84.6315 326.507 84.6397C326.2 84.6644 325.914 84.8021 325.703 85.0261C325.492 85.25 325.372 85.5442 325.365 85.8517L325.3 87.475L323.16 82.2766C322.932 81.6945 322.28 81.1255 321.643 81.4239C321.39 81.5227 321.179 81.704 321.043 81.9384C320.906 82.1728 320.854 82.4463 320.893 82.7143C320.887 82.7151 320.881 82.7164 320.876 82.7183C320.872 82.7205 320.868 82.7232 320.864 82.7261L320.513 81.8285C320.448 81.6622 320.346 81.5126 320.216 81.3904C320.086 81.2683 319.93 81.1767 319.76 81.1225C319.589 81.0682 319.409 81.0526 319.232 81.0767C319.055 81.1009 318.885 81.1642 318.736 81.2621C318.504 81.4209 318.333 81.6546 318.252 81.9241C318.172 82.1936 318.187 82.4825 318.294 82.7425L318.443 83.1243C318.434 83.1338 318.427 83.1448 318.422 83.1567C318.261 82.9223 318.022 82.7526 317.747 82.678C317.473 82.6034 317.18 82.6286 316.923 82.7493C316.645 82.8899 316.43 83.1302 316.321 83.422C316.213 83.7138 316.218 84.0359 316.337 84.3238L316.708 85.2728C316.693 85.263 316.677 85.2569 316.659 85.2549C316.642 85.2529 316.624 85.2551 316.607 85.2613C316.588 85.2699 316.572 85.2837 316.56 85.3013C316.359 85.132 316.107 85.0335 315.844 85.021C315.581 85.0084 315.322 85.0825 315.105 85.2318C314.881 85.3933 314.718 85.6257 314.642 85.8914C314.566 86.1571 314.583 86.4405 314.688 86.6958L317.82 94.7018C318.258 95.8219 319.021 96.7856 320.011 97.4697C321.001 98.1537 322.173 98.5268 323.377 98.5411C324.415 98.5533 325.417 98.1609 326.17 97.4471C326.923 96.7332 327.367 95.7543 327.409 94.7182L327.459 93.457Z" fill="#E98862"/>
<g opacity="0.2">
<path d="M322.985 87.8707C322.958 87.8812 322.928 87.8807 322.901 87.8692C322.875 87.8577 322.854 87.8363 322.843 87.8094L320.815 82.8626C320.808 82.849 320.805 82.8343 320.804 82.8192C320.804 82.8042 320.806 82.7892 320.812 82.7752C320.817 82.7612 320.825 82.7484 320.836 82.7377C320.846 82.727 320.859 82.7185 320.873 82.7128C320.887 82.7071 320.902 82.7043 320.917 82.7046C320.932 82.7049 320.947 82.7082 320.961 82.7144C320.974 82.7205 320.987 82.7294 320.997 82.7405C321.007 82.7516 321.015 82.7647 321.02 82.7789L323.048 87.7257C323.053 87.7391 323.056 87.7535 323.056 87.7681C323.056 87.7826 323.053 87.797 323.047 87.8104C323.042 87.8238 323.034 87.836 323.023 87.8462C323.013 87.8565 323.001 87.8645 322.987 87.87L322.985 87.8707Z" fill="#0C0C0C"/>
</g>
<g opacity="0.2">
<path d="M320.826 88.8247C320.799 88.8352 320.769 88.8346 320.742 88.8231C320.715 88.8116 320.694 88.79 320.683 88.763L318.42 83.2423C318.409 83.2153 318.41 83.1853 318.421 83.1586C318.433 83.1319 318.454 83.1108 318.481 83.0997C318.508 83.09 318.537 83.0909 318.564 83.102C318.59 83.1132 318.612 83.1339 318.624 83.1599L320.887 88.6806C320.898 88.7078 320.898 88.7383 320.886 88.7653C320.875 88.7924 320.853 88.8139 320.826 88.825V88.8247Z" fill="#0C0C0C"/>
</g>
<g opacity="0.2">
<path d="M318.493 89.8709C318.466 89.8815 318.436 89.8809 318.409 89.8694C318.382 89.8578 318.361 89.8362 318.351 89.8092L316.545 85.4057C316.534 85.3786 316.534 85.3481 316.546 85.3211C316.557 85.2941 316.579 85.2726 316.606 85.2615C316.633 85.2504 316.663 85.2505 316.69 85.2619C316.717 85.2732 316.739 85.2948 316.75 85.3219L318.556 89.7244C318.568 89.7516 318.567 89.782 318.556 89.8091C318.545 89.8362 318.523 89.8576 318.496 89.8688L318.493 89.8709Z" fill="#0C0C0C"/>
</g>
<path d="M352.543 105.325L334.101 133.649C333.43 134.678 332.532 135.54 331.475 136.169C329.903 135.303 328.387 134.341 326.933 133.289C323.836 131.056 321.037 128.438 318.605 125.496L314.731 95.4936L330.233 93.0121L332.001 107.454L339.084 96.5765L352.543 105.325Z" fill="#367CFF"/>
<path d="M354.705 82.6502C356.397 82.7624 358.077 82.3082 359.482 81.3594C359.53 81.3267 359.587 81.3086 359.646 81.3071C359.705 81.3057 359.763 81.3209 359.813 81.3511C359.863 81.3813 359.904 81.4251 359.93 81.4775C359.956 81.5299 359.967 81.5887 359.961 81.6471C359.848 82.6452 359.355 84.481 357.258 84.7149C355.905 84.8657 354.924 83.8272 354.429 83.1368C354.395 83.089 354.375 83.0324 354.372 82.9738C354.369 82.9152 354.383 82.8569 354.412 82.8058C354.441 82.7547 354.484 82.7129 354.536 82.6853C354.588 82.6577 354.646 82.6456 354.705 82.6502Z" fill="white"/>
<path d="M391.979 119.378C389.254 124.072 385.701 128.235 381.492 131.665C380.515 132.458 379.506 133.212 378.466 133.927L371.263 106.553L387.484 102.291L391.979 119.378Z" fill="#367CFF"/>
<path d="M378.623 133.82C378.572 133.854 378.516 133.891 378.466 133.927C378.415 133.963 378.363 133.998 378.311 134.032L372.822 113.178L373.168 113.088L378.623 133.82Z" fill="#0C0C0C"/>
<path d="M339.286 126.704C339.241 126.702 339.199 126.684 339.167 126.652C339.135 126.621 339.117 126.578 339.115 126.534L338.761 118.763C338.759 118.715 338.775 118.669 338.807 118.634C338.839 118.599 338.884 118.579 338.931 118.576C338.978 118.574 339.025 118.591 339.06 118.623C339.095 118.655 339.115 118.699 339.118 118.747L339.471 126.518C339.473 126.565 339.457 126.611 339.425 126.646C339.393 126.681 339.349 126.702 339.301 126.704H339.286Z" fill="#0C0C0C"/>
<path d="M205.872 198.615C231.121 198.615 251.589 178.168 251.589 152.945C251.589 127.723 231.121 107.276 205.872 107.276C180.623 107.276 160.154 127.723 160.154 152.945C160.154 178.168 180.623 198.615 205.872 198.615Z" fill="white"/>
<path opacity="0.09" d="M251.589 152.944C251.589 161.976 248.908 170.806 243.885 178.316C238.861 185.826 231.721 191.68 223.368 195.136C215.014 198.593 205.822 199.497 196.954 197.735C188.086 195.973 179.94 191.624 173.546 185.237C167.152 178.85 162.798 170.712 161.034 161.853C159.27 152.995 160.176 143.812 163.636 135.467C167.096 127.122 172.956 119.99 180.474 114.972C187.992 109.953 196.831 107.275 205.873 107.275C211.882 107.253 217.837 108.419 223.394 110.706C228.95 112.993 233.999 116.356 238.249 120.602C242.498 124.847 245.865 129.89 248.154 135.441C250.444 140.992 251.611 146.94 251.589 152.944Z" fill="#367CFF"/>
<path d="M185.635 126.008C185.635 126.008 185.175 132.902 183.622 135.404C179.152 142.604 177.857 150.705 182.334 154.938C186.81 159.172 215.362 159.23 217.524 149.495C219.344 141.3 215.438 140.419 214.487 133.658C214.057 130.599 212.873 124.185 212.873 124.185" fill="#0A0A0A"/>
<path d="M210.134 148.067C210.085 148.06 209.538 157.126 198.996 156.337C191.697 155.791 189.095 148.055 188.928 148.055C189.715 147.888 191.04 147.645 191.39 147.459C192.539 146.842 193.961 146.201 194.332 143.971C194.546 142.687 194.183 136.112 194.296 134.812L205.499 137.31C205.342 140.055 204.247 146.421 208.087 147.548C208.724 147.733 209.412 147.904 210.134 148.067Z" fill="#E98862"/>
<path opacity="0.5" d="M205.654 144.945C205.478 144.38 205.365 143.797 205.317 143.208C205.194 141.863 205.218 140.508 205.39 139.168C203.113 138.861 200.968 137.923 199.198 136.459C198.99 137.226 197.846 140.58 198.163 141.309C198.763 142.687 201.575 144.945 205.654 144.945Z" fill="#0C0C0C"/>
<path d="M204.205 142.121C199.788 142.548 194.073 140.782 192.89 134.907L191.821 129.605C190.637 123.729 192.767 118.345 198.305 117.231C203.843 116.118 208.943 120.047 210.126 125.925L210.599 128.272C211.054 130.526 212.086 141.359 204.205 142.121Z" fill="#E98862"/>
<path opacity="0.1" d="M201.397 134.422C202.124 134.336 202.662 133.834 202.598 133.301C202.534 132.768 201.894 132.407 201.167 132.493C200.44 132.58 199.902 133.082 199.966 133.615C200.03 134.147 200.67 134.509 201.397 134.422Z" fill="#0C0C0C"/>
<path opacity="0.1" d="M209.078 132.292C209.143 132.823 209.784 133.183 210.511 133.099C210.636 133.084 210.76 133.056 210.88 133.015C210.913 132.381 210.916 131.771 210.897 131.206C210.695 131.156 210.486 131.144 210.279 131.171C209.552 131.256 209.015 131.758 209.078 132.292Z" fill="#0C0C0C"/>
<path opacity="0.5" d="M205.866 133.935H205.877C206.101 133.888 206.323 133.829 206.541 133.757C206.866 133.65 207.29 133.47 207.232 133.176C207.165 132.841 205.519 129.414 205.331 129.024C205.314 128.992 205.285 128.968 205.25 128.957C205.215 128.946 205.177 128.948 205.144 128.964C205.111 128.98 205.086 129.008 205.073 129.042C205.06 129.076 205.06 129.113 205.074 129.147C205.776 130.609 206.907 133.007 206.952 133.232C206.917 133.338 206.378 133.543 205.821 133.655C205.785 133.663 205.754 133.684 205.734 133.715C205.714 133.745 205.706 133.781 205.712 133.817C205.717 133.853 205.737 133.885 205.765 133.907C205.794 133.929 205.83 133.94 205.866 133.936V133.935Z" fill="#0C0C0C"/>
<path d="M187.402 131.508L192.367 130.539C196.118 128.971 197.182 122.443 197.182 122.443C197.182 122.443 201.811 126.846 212.873 124.184C212.873 124.184 210.47 108.757 194.136 113.44C188.869 114.949 185.138 120.312 185.693 127.415C186.081 132.394 187.402 131.508 187.402 131.508Z" fill="#0A0A0A"/>
<path d="M193.594 136.628C191.911 136.966 190.184 135.442 189.847 133.76C189.51 132.079 190.686 130.877 192.369 130.539L193.463 131.491L195.042 136.337L193.594 136.628Z" fill="#E98862"/>
<path d="M206.525 126.29C206.946 125.993 207.439 125.812 207.952 125.766C208.21 125.742 208.471 125.756 208.724 125.809C208.98 125.861 209.229 125.945 209.464 126.058L209.471 126.062C209.497 126.072 209.526 126.072 209.552 126.062C209.578 126.052 209.599 126.032 209.611 126.007C209.623 125.982 209.624 125.953 209.616 125.926C209.607 125.9 209.588 125.878 209.564 125.864C209.315 125.733 209.05 125.634 208.776 125.569C208.501 125.501 208.216 125.476 207.933 125.494C207.36 125.525 206.805 125.71 206.327 126.028C206.309 126.04 206.293 126.055 206.28 126.074C206.268 126.092 206.259 126.112 206.255 126.133C206.25 126.155 206.25 126.177 206.255 126.199C206.259 126.22 206.267 126.241 206.28 126.259C206.292 126.277 206.308 126.292 206.327 126.304C206.345 126.316 206.366 126.324 206.387 126.328C206.409 126.331 206.431 126.331 206.453 126.326C206.474 126.321 206.494 126.312 206.512 126.299L206.515 126.296L206.525 126.29Z" fill="#0C0C0C"/>
<path d="M201.989 126.916C201.426 126.804 200.842 126.846 200.3 127.036C200.032 127.128 199.779 127.26 199.55 127.428C199.322 127.593 199.116 127.786 198.936 128.003C198.918 128.024 198.909 128.052 198.911 128.08C198.912 128.108 198.925 128.135 198.946 128.154C198.967 128.173 198.994 128.183 199.023 128.182C199.051 128.181 199.078 128.17 199.098 128.149L199.103 128.143C199.277 127.948 199.474 127.775 199.69 127.63C199.904 127.484 200.139 127.371 200.387 127.295C200.879 127.141 201.404 127.119 201.907 127.233L201.919 127.236C201.94 127.242 201.962 127.243 201.984 127.24C202.005 127.237 202.026 127.23 202.045 127.219C202.064 127.207 202.08 127.193 202.093 127.175C202.106 127.158 202.115 127.138 202.12 127.116C202.126 127.095 202.126 127.073 202.123 127.052C202.119 127.03 202.112 127.01 202.1 126.991C202.089 126.973 202.073 126.957 202.056 126.944C202.038 126.932 202.018 126.923 201.996 126.918L201.989 126.916Z" fill="#0C0C0C"/>
<path d="M192.371 130.458C195.708 129.217 196.816 126.915 197.157 125.201C197.378 124.058 197.357 122.882 197.096 121.748L196.993 121.776C197.25 122.896 197.27 124.057 197.051 125.184C196.715 126.869 195.624 129.135 192.333 130.358L192.371 130.458Z" fill="#0C0C0C"/>
<path d="M234.568 146.261L236.567 139.488C236.611 139.339 236.685 139.201 236.785 139.083C236.886 138.964 237.009 138.868 237.149 138.8C237.288 138.732 237.441 138.694 237.596 138.687C237.751 138.681 237.906 138.708 238.05 138.764C238.314 138.878 238.525 139.085 238.645 139.345C238.764 139.606 238.782 139.901 238.696 140.175L238.268 141.627L241.712 137.678C242.088 137.232 242.833 136.925 243.306 137.378C243.5 137.541 243.632 137.764 243.682 138.012C243.732 138.259 243.696 138.517 243.581 138.741C243.586 138.744 243.591 138.747 243.596 138.75C243.599 138.753 243.601 138.757 243.603 138.761L244.182 138.073C244.29 137.946 244.424 137.844 244.575 137.775C244.727 137.706 244.892 137.672 245.059 137.675C245.225 137.678 245.389 137.718 245.538 137.793C245.687 137.867 245.817 137.973 245.92 138.104C246.077 138.314 246.158 138.571 246.148 138.833C246.139 139.095 246.039 139.345 245.867 139.543L245.621 139.835C245.626 139.846 245.629 139.859 245.63 139.871C245.842 139.712 246.104 139.634 246.369 139.65C246.634 139.666 246.884 139.776 247.076 139.96C247.279 140.167 247.397 140.443 247.405 140.733C247.414 141.023 247.312 141.306 247.122 141.524L246.51 142.251C246.525 142.246 246.542 142.246 246.558 142.25C246.574 142.253 246.589 142.26 246.602 142.271C246.616 142.284 246.627 142.301 246.632 142.32C246.86 142.231 247.112 142.22 247.348 142.288C247.584 142.356 247.791 142.499 247.937 142.696C248.086 142.906 248.16 143.16 248.147 143.417C248.134 143.674 248.035 143.919 247.865 144.113L242.704 150.244C241.982 151.101 241.02 151.724 239.941 152.032C238.863 152.34 237.716 152.319 236.65 151.971C235.73 151.672 234.964 151.027 234.513 150.172C234.062 149.317 233.963 148.32 234.237 147.393L234.568 146.261Z" fill="#E98862"/>
<g opacity="0.2">
<path d="M240.189 142.669C240.21 142.685 240.237 142.693 240.263 142.691C240.29 142.689 240.314 142.677 240.332 142.657L243.603 138.897C243.621 138.876 243.63 138.849 243.628 138.822C243.626 138.795 243.613 138.77 243.593 138.752C243.572 138.734 243.545 138.725 243.518 138.727C243.49 138.729 243.465 138.741 243.447 138.762L240.176 142.521C240.167 142.532 240.161 142.543 240.156 142.556C240.152 142.569 240.15 142.583 240.151 142.596C240.152 142.61 240.156 142.623 240.162 142.635C240.168 142.647 240.176 142.658 240.187 142.667L240.189 142.669Z" fill="#0C0C0C"/>
</g>
<g opacity="0.2">
<path d="M241.81 144.155C241.83 144.172 241.857 144.18 241.883 144.178C241.91 144.176 241.935 144.163 241.952 144.143L245.602 139.948C245.611 139.937 245.618 139.925 245.622 139.913C245.627 139.9 245.628 139.886 245.627 139.873C245.627 139.859 245.623 139.846 245.617 139.834C245.611 139.822 245.602 139.811 245.592 139.802C245.571 139.785 245.544 139.777 245.517 139.779C245.49 139.781 245.465 139.793 245.447 139.812L241.799 144.008C241.79 144.018 241.783 144.03 241.779 144.043C241.775 144.056 241.773 144.07 241.774 144.083C241.775 144.097 241.778 144.11 241.784 144.122C241.791 144.134 241.799 144.145 241.809 144.154L241.81 144.155Z" fill="#0C0C0C"/>
</g>
<g opacity="0.2">
<path d="M243.555 145.776C243.576 145.792 243.602 145.801 243.629 145.798C243.655 145.796 243.68 145.784 243.698 145.764L246.609 142.417C246.626 142.396 246.633 142.37 246.631 142.344C246.628 142.317 246.616 142.293 246.596 142.276C246.576 142.258 246.55 142.249 246.523 142.251C246.497 142.252 246.472 142.263 246.454 142.282L243.542 145.629C243.533 145.639 243.526 145.651 243.522 145.664C243.517 145.677 243.516 145.69 243.517 145.704C243.518 145.717 243.521 145.73 243.527 145.742C243.533 145.754 243.542 145.765 243.552 145.774L243.555 145.776Z" fill="#0C0C0C"/>
</g>
<path d="M246.73 149.218L239.004 184.231C238.987 184.309 238.969 184.391 238.947 184.469C237.212 186.283 235.333 187.953 233.327 189.463C232.924 189.763 232.521 190.059 232.107 190.344C231.851 190.373 231.593 190.387 231.336 190.387C229.959 190.386 228.606 190.024 227.414 189.337C226.221 188.649 225.231 187.66 224.541 186.469L209.818 161.019L223.414 153.173L228.021 161.137L231.396 145.841L246.73 149.218Z" fill="#0CBC8B"/>
<path d="M222.953 165.181C222.907 165.736 222.814 166.728 222.686 168.032C222.043 174.702 220.541 189.567 219.845 196.436C211.055 199.244 201.621 199.339 192.775 196.711H192.771C186.239 194.757 180.227 191.366 175.179 186.786C175.207 180.644 175.118 173.736 174.704 169.294C173.466 156.022 174.637 153.945 176.56 152.023C176.717 151.866 176.881 151.713 177.045 151.563C179.033 149.76 181.527 148.583 185.163 148.091C187.569 147.767 191.187 147.532 191.187 147.532C191.187 147.532 191.494 153.727 198.799 154.069C208.744 154.536 208.08 147.532 208.13 147.532C210.632 147.532 216.198 147.688 219.71 149.474C219.713 149.474 219.713 149.474 219.717 149.478C220.424 149.822 221.067 150.283 221.619 150.843C225.641 155.1 223.656 156.92 222.953 165.181Z" fill="#0CBC8B"/>
<path d="M207.347 135.093C205.912 135.822 204.274 136.053 202.694 135.749C202.639 135.738 202.582 135.744 202.53 135.764C202.479 135.785 202.434 135.82 202.401 135.865C202.369 135.91 202.349 135.963 202.346 136.019C202.343 136.075 202.355 136.13 202.382 136.179C202.854 137.008 203.972 138.427 205.889 137.849C207.128 137.475 207.596 136.203 207.769 135.415C207.781 135.361 207.777 135.304 207.758 135.252C207.739 135.199 207.705 135.154 207.661 135.12C207.616 135.086 207.563 135.066 207.508 135.061C207.452 135.056 207.396 135.068 207.347 135.093Z" fill="white"/>
<path d="M207.437 128.718C207.82 128.718 208.13 128.408 208.13 128.025C208.13 127.642 207.82 127.332 207.437 127.332C207.054 127.332 206.743 127.642 206.743 128.025C206.743 128.408 207.054 128.718 207.437 128.718Z" fill="#0C0C0C"/>
<path d="M200.773 129.883C201.156 129.883 201.466 129.573 201.466 129.19C201.466 128.808 201.156 128.498 200.773 128.498C200.39 128.498 200.08 128.808 200.08 129.19C200.08 129.573 200.39 129.883 200.773 129.883Z" fill="#0C0C0C"/>
<path d="M221.42 180.133C221.416 180.133 221.411 180.133 221.407 180.133C221.378 180.129 221.353 180.114 221.336 180.092C221.319 180.069 221.311 180.04 221.315 180.012L222.541 167.675C222.543 167.661 222.547 167.648 222.554 167.635C222.561 167.623 222.571 167.612 222.582 167.604C222.593 167.595 222.606 167.589 222.62 167.586C222.634 167.582 222.648 167.582 222.662 167.584C222.69 167.588 222.715 167.603 222.733 167.625C222.75 167.648 222.757 167.676 222.753 167.704L221.528 180.042C221.524 180.067 221.511 180.091 221.491 180.107C221.471 180.124 221.446 180.133 221.42 180.133Z" fill="#0C0C0C"/>
<path d="M214.001 179.539L220.7 176.55C220.847 176.484 221.007 176.45 221.168 176.45C221.329 176.449 221.488 176.482 221.636 176.546C221.783 176.61 221.916 176.704 222.025 176.822C222.135 176.941 222.218 177.08 222.27 177.232C222.359 177.516 222.338 177.823 222.213 178.092C222.087 178.362 221.866 178.576 221.592 178.692L220.156 179.334L225.6 179.39C226.206 179.385 226.951 179.767 226.911 180.445C226.913 180.708 226.825 180.963 226.663 181.169C226.501 181.375 226.274 181.521 226.019 181.581C226.02 181.587 226.021 181.593 226.021 181.598C226.021 181.603 226.02 181.607 226.019 181.612L226.952 181.605C227.125 181.604 227.296 181.641 227.452 181.714C227.609 181.788 227.747 181.895 227.857 182.028C227.966 182.161 228.045 182.317 228.087 182.484C228.129 182.652 228.133 182.826 228.099 182.995C228.039 183.261 227.89 183.498 227.676 183.666C227.463 183.835 227.198 183.925 226.926 183.922L226.528 183.925C226.523 183.937 226.516 183.947 226.507 183.956C226.776 184.016 227.014 184.17 227.18 184.39C227.346 184.61 227.428 184.882 227.412 185.156C227.385 185.456 227.246 185.735 227.022 185.937C226.799 186.14 226.507 186.25 226.205 186.247L225.219 186.254C225.233 186.264 225.244 186.277 225.252 186.292C225.26 186.307 225.265 186.323 225.265 186.34C225.264 186.361 225.257 186.38 225.246 186.397C225.471 186.517 225.65 186.708 225.755 186.94C225.861 187.172 225.887 187.432 225.83 187.68C225.765 187.939 225.615 188.169 225.403 188.332C225.191 188.496 224.93 188.583 224.663 188.579L216.338 188.639C215.173 188.647 214.033 188.308 213.062 187.664C212.092 187.021 211.336 186.102 210.892 185.027C210.508 184.1 210.502 183.059 210.874 182.128C211.246 181.196 211.967 180.445 212.884 180.036L214.001 179.539Z" fill="#E98862"/>
<g opacity="0.2">
<path d="M220.63 181.552C220.63 181.58 220.641 181.608 220.661 181.628C220.681 181.648 220.709 181.659 220.737 181.659L225.914 181.706C225.943 181.706 225.97 181.695 225.99 181.675C226.01 181.655 226.022 181.628 226.022 181.6C226.022 181.571 226.011 181.544 225.991 181.524C225.972 181.503 225.944 181.492 225.916 181.492L220.738 181.445C220.71 181.445 220.683 181.456 220.662 181.476C220.642 181.496 220.631 181.524 220.631 181.552H220.63Z" fill="#0C0C0C"/>
</g>
<g opacity="0.2">
<path d="M220.547 183.833C220.547 183.862 220.558 183.889 220.578 183.909C220.598 183.929 220.625 183.94 220.654 183.94L226.431 183.992C226.459 183.992 226.487 183.981 226.507 183.961C226.527 183.941 226.538 183.914 226.538 183.885C226.537 183.857 226.526 183.831 226.506 183.811C226.486 183.791 226.459 183.779 226.431 183.779L220.653 183.726C220.625 183.726 220.598 183.738 220.578 183.758C220.557 183.778 220.547 183.805 220.547 183.833Z" fill="#0C0C0C"/>
</g>
<g opacity="0.2">
<path d="M220.442 186.301C220.442 186.33 220.453 186.357 220.473 186.377C220.493 186.397 220.52 186.408 220.549 186.408L225.157 186.45C225.186 186.45 225.213 186.439 225.233 186.419C225.253 186.399 225.264 186.371 225.264 186.343C225.264 186.315 225.253 186.287 225.233 186.267C225.213 186.247 225.186 186.236 225.157 186.236L220.549 186.195C220.52 186.195 220.493 186.206 220.473 186.226C220.453 186.246 220.442 186.273 220.442 186.302V186.301Z" fill="#0C0C0C"/>
</g>
<path d="M215.92 191.456L192.775 196.711H192.771C186.239 194.757 180.227 191.366 175.179 186.786C174.637 186.295 174.106 185.791 173.587 185.275C172.683 184.373 171.819 183.436 170.993 182.462L174.233 156.426C174.587 154.327 175.76 152.454 177.496 151.22C179.232 149.985 181.387 149.49 183.488 149.843C185.589 150.196 187.464 151.369 188.699 153.103C189.935 154.836 190.431 156.99 190.077 159.088L188.029 183.535L213.836 177.7L215.92 191.456Z" fill="#0CBC8B"/>
<path d="M182.809 184.496C182.795 184.497 182.78 184.495 182.767 184.491C182.754 184.486 182.741 184.479 182.731 184.47C182.72 184.461 182.711 184.45 182.705 184.437C182.698 184.425 182.695 184.411 182.694 184.397C182.693 184.383 182.694 184.369 182.699 184.355C182.703 184.342 182.71 184.33 182.719 184.319C182.728 184.308 182.74 184.299 182.752 184.293C182.765 184.287 182.779 184.283 182.793 184.282L187.967 183.177C187.981 183.175 187.995 183.175 188.009 183.179C188.022 183.182 188.035 183.188 188.047 183.196C188.058 183.205 188.067 183.215 188.075 183.227C188.082 183.239 188.087 183.253 188.089 183.267C188.091 183.281 188.09 183.295 188.087 183.308C188.083 183.322 188.077 183.335 188.069 183.346C188.061 183.357 188.05 183.367 188.038 183.374C188.026 183.381 188.013 183.386 187.999 183.388L182.823 184.493C182.818 184.495 182.813 184.495 182.809 184.496Z" fill="#0C0C0C"/>
<path d="M215.92 191.456C215.926 191.484 215.921 191.512 215.906 191.536C215.892 191.56 215.869 191.577 215.842 191.585L193.357 196.878C193.214 196.839 193.075 196.8 192.936 196.757L215.685 191.406L213.658 177.86L188.004 183.389C187.987 183.392 187.97 183.39 187.954 183.386C187.938 183.381 187.923 183.372 187.911 183.361C187.901 183.348 187.893 183.333 187.888 183.317C187.883 183.301 187.881 183.285 187.883 183.268L189.321 169.298C189.323 169.284 189.328 169.271 189.336 169.259C189.344 169.247 189.354 169.237 189.365 169.229C189.377 169.221 189.39 169.215 189.404 169.212C189.418 169.21 189.432 169.209 189.446 169.212C189.474 169.216 189.499 169.232 189.515 169.254C189.532 169.277 189.539 169.306 189.535 169.333L188.118 183.161L213.704 177.621C213.718 177.618 213.732 177.617 213.747 177.619C213.761 177.622 213.774 177.627 213.786 177.636C213.798 177.642 213.809 177.651 213.818 177.662C213.826 177.673 213.833 177.686 213.836 177.7L215.92 191.456Z" fill="#0C0C0C"/>
<path d="M41.9201 251.234C65.072 251.234 83.8403 232.486 83.8403 209.358C83.8403 186.23 65.072 167.482 41.9201 167.482C18.7683 167.482 0 186.23 0 209.358C0 232.486 18.7683 251.234 41.9201 251.234Z" fill="white"/>
<path opacity="0.09" d="M41.9201 251.234C65.072 251.234 83.8403 232.486 83.8403 209.358C83.8403 186.23 65.072 167.482 41.9201 167.482C18.7683 167.482 0 186.23 0 209.358C0 232.486 18.7683 251.234 41.9201 251.234Z" fill="#367CFF"/>
<path d="M30.3758 185.606C30.3758 185.606 30.8301 198.218 39.257 198.798L40.6844 182.166L30.3758 185.606Z" fill="#0A0A0A"/>
<path d="M31.9987 201.374C34.7559 201.374 36.991 199.141 36.991 196.387C36.991 193.633 34.7559 191.4 31.9987 191.4C29.2416 191.4 27.0065 193.633 27.0065 196.387C27.0065 199.141 29.2416 201.374 31.9987 201.374Z" fill="#0A0A0A"/>
<path d="M51.5321 204.651C51.4875 204.645 50.9944 212.824 41.4837 212.111C34.8995 211.619 32.5522 204.641 32.4016 204.641C33.154 204.516 33.8962 204.336 34.6223 204.103C35.6589 203.546 36.9418 202.968 37.2758 200.956C37.4685 199.797 37.142 193.866 37.2422 192.694L47.3488 194.947C47.2061 197.424 46.2191 203.166 49.6833 204.183C50.2593 204.351 50.8802 204.506 51.5321 204.651Z" fill="#E98862"/>
<path opacity="0.5" d="M47.4901 201.835C47.3317 201.325 47.2298 200.799 47.1861 200.267C47.0751 199.053 47.0973 197.831 47.2521 196.623C45.198 196.346 43.2628 195.499 41.6664 194.178C41.4787 194.87 40.4467 197.896 40.7326 198.553C41.2728 199.8 43.8111 201.835 47.4901 201.835Z" fill="#0C0C0C"/>
<path d="M45.9068 199.632C41.9041 199.683 36.9 197.665 36.2798 192.294L35.7203 187.446C35.0997 182.075 37.421 177.393 42.484 176.811C47.5465 176.228 51.8333 180.146 52.4539 185.518L52.7015 187.663C52.9395 189.726 53.0487 199.541 45.9068 199.632Z" fill="#E98862"/>
<path d="M51.2506 187.519C51.5973 187.519 51.8783 187.239 51.8783 186.892C51.8783 186.546 51.5973 186.265 51.2506 186.265C50.9039 186.265 50.6229 186.546 50.6229 186.892C50.6229 187.239 50.9039 187.519 51.2506 187.519Z" fill="#0C0C0C"/>
<path d="M44.8348 188.252C45.1815 188.252 45.4625 187.972 45.4625 187.625C45.4625 187.279 45.1815 186.998 44.8348 186.998C44.4882 186.998 44.2072 187.279 44.2072 187.625C44.2072 187.972 44.4882 188.252 44.8348 188.252Z" fill="#0C0C0C"/>
<path opacity="0.5" d="M48.0186 192.399H48.0286C48.2337 192.374 48.4373 192.337 48.6385 192.29C48.9389 192.217 49.335 192.089 49.304 191.82C49.2683 191.514 48.0482 188.308 47.9091 187.944C47.9031 187.928 47.894 187.914 47.8824 187.901C47.8708 187.889 47.8569 187.879 47.8415 187.873C47.8261 187.866 47.8095 187.862 47.7926 187.861C47.7757 187.861 47.7589 187.864 47.7431 187.87C47.7274 187.876 47.7129 187.885 47.7007 187.896C47.6884 187.908 47.6786 187.922 47.6717 187.937C47.6648 187.953 47.661 187.969 47.6605 187.986C47.66 188.003 47.6629 188.02 47.6689 188.036C48.1896 189.4 49.0249 191.643 49.0485 191.85C48.7273 192.03 48.3674 192.131 47.999 192.144C47.965 192.147 47.9335 192.163 47.9113 192.189C47.8891 192.215 47.8781 192.248 47.8807 192.282C47.8833 192.316 47.8993 192.347 47.9252 192.37C47.951 192.392 47.9846 192.403 48.0186 192.4V192.399Z" fill="#0C0C0C"/>
<path opacity="0.5" d="M47.1137 194.635C47.9359 194.588 48.7357 194.348 49.4485 193.936C49.4766 193.919 49.4969 193.891 49.5052 193.859C49.5136 193.827 49.5093 193.793 49.4933 193.765C49.4773 193.736 49.4508 193.714 49.4193 193.704C49.3878 193.694 49.3537 193.697 49.324 193.711C47.7845 194.562 46.3122 194.611 45.0668 193.854C45.0416 193.838 45.0157 193.823 44.989 193.81C44.9581 193.798 44.9238 193.798 44.8932 193.811C44.8626 193.823 44.838 193.847 44.8246 193.877C44.8111 193.908 44.8098 193.942 44.821 193.973C44.8321 194.004 44.8549 194.03 44.8845 194.045C44.8941 194.05 44.9105 194.06 44.933 194.073C45.5877 194.473 46.3471 194.669 47.1137 194.635Z" fill="#0C0C0C"/>
<path d="M31.6041 188.824L36.1407 188.327C39.6303 187.202 41.0801 181.412 41.0801 181.412C41.0801 181.412 44.2072 184.964 53.4737 183.342C53.4737 183.342 53.1148 171.408 39.0215 173.088C34.1145 173.674 30.4144 178.59 30.3762 185.017C30.3498 189.521 31.6041 188.824 31.6041 188.824Z" fill="#0A0A0A"/>
<path d="M36.7833 193.894C35.2446 194.072 33.8076 192.571 33.6302 191.034C33.4529 189.497 34.6019 188.506 36.1407 188.329L37.0524 189.267L38.1062 193.742L36.7833 193.894Z" fill="#E98862"/>
<path d="M49.0306 185.328C49.4845 185.077 49.9974 184.952 50.5158 184.967C50.7719 184.973 51.0256 185.017 51.2684 185.098C51.5097 185.177 51.74 185.286 51.9539 185.423C51.9753 185.437 51.9907 185.458 51.9967 185.483C52.0028 185.507 51.9991 185.533 51.9865 185.555C51.9738 185.577 51.9532 185.594 51.9288 185.601C51.9045 185.608 51.8783 185.605 51.8558 185.594L51.8494 185.59C51.6467 185.47 51.4297 185.376 51.2035 185.31C50.9794 185.243 50.7465 185.21 50.5126 185.213C50.0473 185.215 49.5909 185.341 49.1898 185.576L49.1802 185.582C49.1636 185.593 49.145 185.601 49.1255 185.604C49.106 185.608 49.0859 185.607 49.0666 185.603C49.0472 185.599 49.029 185.59 49.0128 185.579C48.9967 185.567 48.9831 185.553 48.9728 185.536C48.9625 185.519 48.9557 185.5 48.9529 185.48C48.95 185.461 48.9511 185.441 48.9561 185.422C48.9612 185.402 48.97 185.384 48.9821 185.369C48.9943 185.353 49.0094 185.34 49.0267 185.33L49.0306 185.328Z" fill="#0C0C0C"/>
<path d="M44.9647 186.075C44.5211 185.934 44.0481 185.914 43.5941 186.016C43.3654 186.066 43.1456 186.15 42.9421 186.266C42.7365 186.381 42.5461 186.521 42.3755 186.683L42.3701 186.688C42.3507 186.702 42.3267 186.709 42.3026 186.707C42.2786 186.705 42.2562 186.694 42.2397 186.676C42.2231 186.659 42.2137 186.636 42.2131 186.612C42.2124 186.587 42.2207 186.564 42.2363 186.545C42.4142 186.364 42.6142 186.206 42.8315 186.075C43.0502 185.942 43.2877 185.843 43.5359 185.78C44.038 185.65 44.5658 185.657 45.0643 185.8C45.0836 185.805 45.1016 185.814 45.1174 185.826C45.1332 185.838 45.1464 185.853 45.1562 185.87C45.166 185.888 45.1722 185.907 45.1745 185.926C45.1767 185.946 45.175 185.966 45.1693 185.985C45.1636 186.004 45.1542 186.022 45.1415 186.037C45.1288 186.052 45.1132 186.065 45.0955 186.074C45.0778 186.083 45.0585 186.089 45.0387 186.09C45.0188 186.092 44.9989 186.089 44.9801 186.083H44.9762L44.9647 186.075Z" fill="#0C0C0C"/>
<path opacity="0.52" d="M47.1997 195.849C47.3485 195.843 47.4965 195.824 47.6422 195.793C47.6746 195.785 47.7026 195.765 47.7203 195.737C47.738 195.708 47.7441 195.674 47.7372 195.642C47.7303 195.609 47.711 195.58 47.6833 195.562C47.6557 195.543 47.6219 195.536 47.589 195.541C47.3616 195.608 47.1226 195.625 46.888 195.592C46.6534 195.559 46.4286 195.476 46.2287 195.349C46.2023 195.327 46.1684 195.317 46.1345 195.32C46.1005 195.324 46.0693 195.34 46.0478 195.367C46.0262 195.393 46.016 195.427 46.0194 195.461C46.0228 195.495 46.0396 195.526 46.066 195.547C46.3976 195.776 46.7982 195.882 47.1997 195.849Z" fill="#0C0C0C"/>
<path opacity="0.1" d="M43.9655 192.499C44.6255 192.475 45.1468 192.065 45.1299 191.581C45.1129 191.097 44.5641 190.724 43.9041 190.747C43.2441 190.77 42.7228 191.181 42.7397 191.665C42.7567 192.148 43.3055 192.522 43.9655 192.499Z" fill="#0C0C0C"/>
<path opacity="0.1" d="M51.029 191.164C51.0475 191.647 51.596 192.019 52.2562 191.997C52.3703 191.993 52.4836 191.977 52.5945 191.95C52.6726 191.382 52.7204 190.834 52.7465 190.325C52.5688 190.265 52.3813 190.238 52.1937 190.246C51.535 190.268 51.014 190.678 51.029 191.164Z" fill="#0C0C0C"/>
<path d="M65.7364 213.265C65.7078 216.121 64.7265 219.525 64.3768 223.639C64.284 224.737 61.9249 227.913 61.5823 231.445C61.1506 235.944 62.1108 242.96 62.2393 245.993C55.6084 249.658 48.1076 251.461 40.5334 251.21C32.9593 250.959 25.5946 248.664 19.2215 244.567C19.0502 236.775 18.8468 227.154 18.5863 224.847C17.7406 217.233 17.969 212.417 19.1894 210.164C21.1842 206.485 24.7348 205.362 28.4495 204.856C30.7191 204.55 34.127 204.332 34.127 204.332C34.127 204.332 34.416 210.168 41.3031 210.492C50.6775 210.934 50.053 204.332 50.0994 204.332C53.5001 204.332 59.9448 205.145 62.4141 206.827C65.0334 208.606 65.7685 210.717 65.7364 213.265Z" fill="#FFC239"/>
<path d="M33.3491 217.707L20.6311 245.432C15.748 242.552 11.4993 238.714 8.14145 234.15L18.7505 211.022L33.3491 217.707Z" fill="#FFC239"/>
<path d="M76.01 233.73C73.5185 237.203 70.5114 240.275 67.0924 242.842C65.9671 243.691 64.7986 244.481 63.5917 245.209L50.5383 216.541L65.1547 209.897L76.01 233.73Z" fill="#FFC239"/>
<path d="M129.163 87.1999C153.267 87.1999 172.808 67.6795 172.808 43.5999C172.808 19.5204 153.267 0 129.163 0C105.058 0 85.5171 19.5204 85.5171 43.5999C85.5171 67.6795 105.058 87.1999 129.163 87.1999Z" fill="white"/>
<path opacity="0.09" d="M129.163 87.1999C153.267 87.1999 172.808 67.6795 172.808 43.5999C172.808 19.5204 153.267 0 129.163 0C105.058 0 85.5171 19.5204 85.5171 43.5999C85.5171 67.6795 105.058 87.1999 129.163 87.1999Z" fill="#367CFF"/>
<path d="M137.602 17.4914C137.602 17.4914 140.366 14.4992 140.152 8.79991C139.987 4.38712 136.52 7.89232 136.52 7.89232C136.52 7.89232 136.369 4.71614 134.164 5.43266C131.96 6.14917 131.282 9.63691 131.282 9.63691" fill="#0C0C0C"/>
<path d="M122.537 7.91015C122.537 7.91015 111.53 11.1416 118.34 25.6023L119.346 25.4889L121.386 25.2594" fill="#0C0C0C"/>
<path d="M138.135 40.6023C138.085 40.5959 137.528 49.8207 126.801 49.0151C119.374 48.4594 116.726 40.5881 116.556 40.5881C117.356 40.418 118.346 40.1603 118.739 40.0716C119.596 39.8728 120.373 39.4181 120.965 38.7679C121.557 38.1177 121.937 37.3028 122.054 36.4316C122.271 35.1241 121.903 28.4345 122.016 27.1116L133.416 29.6533C133.257 32.4476 132.142 38.9251 136.049 40.0716C136.7 40.2616 137.4 40.4362 138.135 40.6023Z" fill="#E98862"/>
<path opacity="0.52" d="M133.576 37.4247C133.398 36.8498 133.283 36.2572 133.233 35.6573C133.108 34.2884 133.133 32.91 133.308 31.5465C130.991 31.2341 128.808 30.2786 127.007 28.7888C126.795 29.5698 125.631 32.9824 125.953 33.7245C126.563 35.1276 129.426 37.4247 133.576 37.4247Z" fill="#0C0C0C"/>
<path d="M131.715 34.4877C127.219 34.8916 121.415 33.0561 120.251 27.0688L119.201 21.6665C118.037 15.6777 120.242 10.2147 125.885 9.12038C131.528 8.02564 136.69 12.0613 137.854 18.0486L138.317 20.4402C138.463 21.2641 138.552 22.097 138.584 22.933C138.684 25.1431 138.829 28.5022 137.765 30.9854C136.762 33.3303 134.588 34.23 131.715 34.4877Z" fill="#E98862"/>
<path opacity="0.5" d="M132.395 28.5685C133.218 28.553 134.027 28.3445 134.755 27.9596C134.771 27.9525 134.785 27.9422 134.796 27.9294C134.808 27.9166 134.817 27.9016 134.823 27.8852C134.829 27.8689 134.831 27.8515 134.83 27.8342C134.829 27.8169 134.824 27.7999 134.817 27.7844C134.809 27.7689 134.798 27.7552 134.785 27.744C134.771 27.7328 134.756 27.7244 134.739 27.7194C134.723 27.7143 134.705 27.7126 134.688 27.7145C134.671 27.7163 134.654 27.7216 134.639 27.7301C133.069 28.5218 131.595 28.5143 130.379 27.7108C130.355 27.6938 130.33 27.6781 130.303 27.6638C130.288 27.6563 130.272 27.6519 130.255 27.6509C130.238 27.6498 130.221 27.652 130.205 27.6575C130.189 27.6629 130.174 27.6715 130.162 27.6826C130.149 27.6937 130.139 27.7073 130.131 27.7224C130.124 27.7376 130.119 27.754 130.118 27.7709C130.117 27.7877 130.119 27.8046 130.125 27.8206C130.13 27.8365 130.139 27.8513 130.15 27.8639C130.161 27.8766 130.175 27.887 130.19 27.8944C130.2 27.8998 130.215 27.9105 130.237 27.9251C130.876 28.3493 131.628 28.5733 132.395 28.5685Z" fill="#0C0C0C"/>
<path opacity="0.52" d="M132.434 29.7866C132.583 29.7861 132.732 29.773 132.879 29.7474C132.895 29.7445 132.911 29.7385 132.926 29.7295C132.94 29.7205 132.952 29.7088 132.962 29.695C132.972 29.6813 132.979 29.6658 132.982 29.6493C132.986 29.6329 132.987 29.6159 132.984 29.5992C132.981 29.5826 132.975 29.5667 132.966 29.5525C132.957 29.5382 132.945 29.5258 132.931 29.5161C132.918 29.5063 132.902 29.4994 132.886 29.4956C132.869 29.4919 132.852 29.4914 132.836 29.4943C132.606 29.5518 132.366 29.5597 132.133 29.5175C131.9 29.4754 131.679 29.3841 131.483 29.2497C131.458 29.2281 131.425 29.2173 131.391 29.2198C131.358 29.2222 131.326 29.2377 131.304 29.2629C131.282 29.2881 131.271 29.3209 131.272 29.3545C131.274 29.388 131.289 29.4195 131.314 29.4422C131.636 29.6831 132.032 29.8048 132.434 29.7866Z" fill="#0C0C0C"/>
<path d="M136.503 21.9488C136.894 21.9488 137.211 21.6321 137.211 21.2415C137.211 20.8509 136.894 20.5343 136.503 20.5343C136.112 20.5343 135.795 20.8509 135.795 21.2415C135.795 21.6321 136.112 21.9488 136.503 21.9488Z" fill="#0C0C0C"/>
<path d="M129.619 22.7526C130.01 22.7526 130.327 22.436 130.327 22.0454C130.327 21.6548 130.01 21.3382 129.619 21.3382C129.228 21.3382 128.911 21.6548 128.911 22.0454C128.911 22.436 129.228 22.7526 129.619 22.7526Z" fill="#0C0C0C"/>
<path d="M120.956 28.8248C119.241 29.1574 117.495 27.5943 117.161 25.8811C116.828 24.1678 118.035 22.9537 119.75 22.6211L120.856 23.5975L122.43 28.5389L120.956 28.8248Z" fill="#E98862"/>
<path d="M122.166 25.7563C122.166 25.7563 121.208 17.1599 123.691 16.1696C125.344 15.5098 129.948 17.1895 133.671 15.7579C135.299 15.1312 136.976 15.2589 137.283 16.0256C137.405 16.329 137.636 11.6096 134.371 8.64983C131.771 6.29354 124.749 6.76516 121.78 8.22884C113.559 12.2816 119.463 23.0581 119.463 23.0581L120.381 25.9156L122.166 25.7563Z" fill="#0C0C0C"/>
<g opacity="0.52">
<path d="M133.45 26.4396H133.461C134.015 26.3327 134.93 26.0949 134.853 25.6818C134.787 25.3392 133.14 21.823 132.953 21.4233C132.945 21.4063 132.934 21.3911 132.92 21.3784C132.906 21.3657 132.89 21.3559 132.872 21.3495C132.855 21.3431 132.836 21.3403 132.817 21.3412C132.798 21.342 132.78 21.3466 132.763 21.3545C132.746 21.3625 132.73 21.3738 132.718 21.3877C132.705 21.4016 132.695 21.4178 132.689 21.4355C132.682 21.4532 132.68 21.4719 132.68 21.4907C132.681 21.5095 132.686 21.5279 132.694 21.5449C133.424 23.102 134.527 25.5018 134.572 25.7353C134.536 25.8422 133.982 26.0486 133.41 26.158C133.372 26.1637 133.338 26.1841 133.315 26.2148C133.292 26.2455 133.283 26.284 133.288 26.3218C133.294 26.3596 133.314 26.3937 133.345 26.4164C133.376 26.4392 133.414 26.4488 133.452 26.4432L133.45 26.4396Z" fill="#0C0C0C"/>
</g>
<path d="M133.842 17.8237C134.395 17.5587 135.01 17.4478 135.621 17.5029C135.921 17.5281 136.215 17.598 136.494 17.7103C136.77 17.8198 137.03 17.9635 137.27 18.1381C137.314 18.1688 137.345 18.2156 137.356 18.2685C137.366 18.3215 137.356 18.3765 137.327 18.422C137.298 18.4675 137.252 18.4999 137.199 18.5124C137.147 18.525 137.092 18.5167 137.045 18.4892L137.029 18.4835C136.812 18.3449 136.578 18.2342 136.333 18.1538C136.092 18.0735 135.841 18.0301 135.587 18.0251C135.087 18.0112 134.591 18.1296 134.152 18.3684L134.133 18.3787C134.098 18.3991 134.058 18.4123 134.017 18.4175C133.976 18.4226 133.935 18.4197 133.895 18.4089C133.855 18.3981 133.818 18.3795 133.786 18.3543C133.753 18.3291 133.726 18.2977 133.705 18.262C133.685 18.2262 133.672 18.1868 133.667 18.146C133.661 18.1051 133.664 18.0637 133.675 18.024C133.686 17.9843 133.705 17.9471 133.73 17.9146C133.755 17.882 133.786 17.8548 133.822 17.8344L133.842 17.8237Z" fill="#0C0C0C"/>
<path d="M129.782 18.9195C129.3 18.7848 128.791 18.7795 128.307 18.9041C128.061 18.9654 127.825 19.0636 127.608 19.1954C127.387 19.3281 127.183 19.488 127.001 19.6713L126.99 19.6827C126.951 19.7205 126.899 19.7416 126.844 19.7414C126.79 19.7412 126.738 19.7198 126.699 19.6817C126.66 19.6437 126.637 19.5919 126.636 19.5376C126.635 19.4832 126.655 19.4305 126.692 19.3907C126.886 19.1668 127.108 18.9683 127.353 18.8001C127.6 18.6284 127.871 18.4947 128.158 18.4033C128.445 18.3089 128.743 18.2542 129.044 18.2408C129.353 18.2238 129.663 18.2507 129.964 18.3206C130.045 18.3395 130.115 18.3898 130.159 18.4604C130.203 18.531 130.217 18.6161 130.198 18.697C130.179 18.778 130.129 18.8481 130.058 18.8919C129.988 18.9358 129.902 18.9498 129.821 18.9309L129.803 18.9259L129.782 18.9195Z" fill="#0C0C0C"/>
<path d="M131.954 12.1284C133.178 11.6328 133.578 9.77193 132.848 7.97196C132.118 6.17198 130.533 5.11456 129.309 5.61014C128.085 6.10572 127.685 7.96663 128.415 9.76661C129.145 11.5666 130.73 12.624 131.954 12.1284Z" fill="#0C0C0C"/>
<path d="M152.962 50.1348C153.005 53.09 151.849 56.4123 151.463 60.911C151.385 61.8236 151.199 63.8341 150.953 66.4542C150.55 70.7924 149.979 76.7919 149.479 82.1996C142.335 85.9456 134.292 87.6427 126.241 87.1029C118.19 86.563 110.446 83.8073 103.867 79.1411C103.71 79.0234 103.553 78.9093 103.396 78.7988C102.979 72.6853 102.486 66.2688 102.037 62.2157C101.191 54.6478 100.038 50.8798 100.684 48.3346C100.736 48.1179 100.805 47.9057 100.891 47.7001C102.75 43.1943 108.67 41.1837 112.681 40.6419C115.129 40.3104 118.812 40.0715 118.812 40.0715C118.812 40.0715 119.122 46.374 126.555 46.7233C136.676 47.201 136.001 40.0715 136.051 40.0715C137.689 40.0715 146.614 41.2622 148.844 42.7166C149.218 42.9591 149.576 43.2258 149.915 43.5151C150.884 44.3224 151.66 45.3357 152.187 46.4809C152.714 47.6261 152.979 48.8744 152.962 50.1348Z" fill="#383838"/>
<path d="M115.7 54.7048L103.867 79.141C103.71 79.0234 103.553 78.9093 103.396 78.7988C98.809 75.4388 94.9187 71.2209 91.9414 66.3793L100.684 48.3346L101.03 47.6181L115.7 54.7048Z" fill="#383838"/>
<path d="M114.558 57.5174L103.796 79.0876C103.724 79.0341 103.657 78.9842 103.585 78.9379L114.333 57.4068C114.349 57.3769 114.375 57.3541 114.407 57.3435C114.439 57.3328 114.474 57.3351 114.505 57.3498C114.534 57.3649 114.556 57.3911 114.566 57.4225C114.576 57.4539 114.573 57.488 114.558 57.5174Z" fill="white"/>
<path d="M169.127 61.1534C166.982 66.0099 163.97 70.4358 160.238 74.2146L150.953 66.4542L139.159 56.5941L149.915 43.5151L149.947 43.4759L169.127 61.1534Z" fill="#383838"/>
<path d="M151.096 66.5493C151.126 66.5478 151.155 66.5354 151.177 66.5143C151.199 66.4933 151.212 66.4651 151.215 66.4349L151.828 59.2591C151.831 59.226 151.82 59.193 151.799 59.1676C151.777 59.1421 151.747 59.1262 151.713 59.1233C151.68 59.1209 151.648 59.1315 151.622 59.1528C151.597 59.1741 151.581 59.2044 151.578 59.2373L150.965 66.4135C150.962 66.4466 150.973 66.4794 150.994 66.5048C151.016 66.5302 151.046 66.5461 151.079 66.549L151.096 66.5493Z" fill="white"/>
<path d="M334.678 276C357.669 276 376.306 257.381 376.306 234.415C376.306 211.448 357.669 192.829 334.678 192.829C311.687 192.829 293.049 211.448 293.049 234.415C293.049 257.381 311.687 276 334.678 276Z" fill="white"/>
<path opacity="0.09" d="M293.049 234.413C293.049 242.638 295.49 250.678 300.064 257.517C304.638 264.355 311.14 269.685 318.746 272.833C326.353 275.98 334.723 276.804 342.798 275.199C350.873 273.595 358.29 269.634 364.112 263.819C369.934 258.003 373.898 250.593 375.505 242.527C377.111 234.46 376.286 226.099 373.136 218.5C369.985 210.902 364.649 204.407 357.804 199.838C350.958 195.268 342.91 192.829 334.677 192.829C329.204 192.809 323.782 193.871 318.723 195.954C313.663 198.036 309.066 201.099 305.196 204.964C301.327 208.83 298.261 213.422 296.177 218.476C294.092 223.53 293.029 228.947 293.049 234.413Z" fill="#367CFF"/>
<path d="M353.567 211.467C352.902 219.166 353.518 221.777 356.719 226.189C359.419 229.908 344.059 226.747 337.263 225.538L343.26 208.028C343.26 208.028 353.8 208.763 353.567 211.467Z" fill="#0A0A0A"/>
<path d="M330.12 208.263C328.115 215.727 328.34 218.036 324.417 221.956C321.165 225.205 333.839 225.866 340.64 227.046L340.984 208.545C340.984 208.545 330.825 205.642 330.12 208.263Z" fill="#0A0A0A"/>
<path d="M330.796 229.973C330.841 229.967 331.339 238.222 340.939 237.502C347.584 237.005 349.954 229.961 350.106 229.961C349.347 229.835 348.597 229.654 347.865 229.418C346.818 228.856 345.523 228.272 345.186 226.242C344.992 225.072 345.321 219.086 345.22 217.901L335.019 220.175C335.162 222.675 336.161 228.472 332.664 229.497C332.081 229.668 331.454 229.825 330.796 229.973Z" fill="#E98862"/>
<path opacity="0.5" d="M334.876 227.13C335.036 226.616 335.138 226.085 335.183 225.548C335.295 224.323 335.273 223.09 335.116 221.87C337.19 221.59 339.143 220.735 340.754 219.402C340.944 220.101 341.986 223.155 341.697 223.819C341.152 225.074 338.59 227.13 334.876 227.13Z" fill="#0C0C0C"/>
<path d="M336.195 224.558C340.217 224.947 345.421 223.34 346.499 217.99L347.471 213.162C348.549 207.812 346.61 202.909 341.567 201.895C336.524 200.881 331.881 204.461 330.803 209.811L330.373 211.95C329.959 214.001 329.019 223.865 336.195 224.558Z" fill="#E98862"/>
<path d="M352.339 214.686L347.802 214.189C338.925 212.559 336.751 205.403 336.751 205.403C336.751 205.403 333.028 210.369 329.866 209.229C329.866 209.229 330.885 197.255 344.921 199.359C350.435 200.186 353.567 204.752 353.567 210.878C353.567 215.381 352.339 214.686 352.339 214.686Z" fill="#0A0A0A"/>
<path opacity="0.1" d="M340.052 216.81C340.11 216.325 339.621 215.868 338.959 215.789C338.297 215.71 337.714 216.039 337.656 216.524C337.598 217.009 338.087 217.467 338.749 217.545C339.411 217.624 339.995 217.295 340.052 216.81Z" fill="#0C0C0C"/>
<path opacity="0.1" d="M331.76 215.608C331.701 216.092 331.117 216.422 330.455 216.343C330.341 216.33 330.228 216.304 330.119 216.267C330.088 215.69 330.086 215.134 330.103 214.62C330.287 214.574 330.478 214.563 330.666 214.587C331.326 214.665 331.815 215.122 331.76 215.608Z" fill="#0C0C0C"/>
<path opacity="0.5" d="M334.683 217.105H334.673C334.468 217.063 334.267 217.009 334.069 216.944C333.772 216.845 333.385 216.683 333.439 216.415C333.5 216.11 334.999 212.989 335.169 212.634C335.176 212.618 335.187 212.604 335.199 212.592C335.212 212.581 335.227 212.571 335.243 212.565C335.26 212.559 335.277 212.557 335.294 212.558C335.312 212.558 335.329 212.563 335.344 212.57C335.36 212.578 335.374 212.588 335.385 212.601C335.397 212.614 335.406 212.629 335.411 212.646C335.417 212.662 335.419 212.68 335.418 212.697C335.416 212.714 335.411 212.731 335.404 212.747C334.764 214.076 333.735 216.261 333.693 216.466C334.001 216.675 334.354 216.807 334.724 216.851C334.756 216.858 334.785 216.877 334.804 216.905C334.823 216.932 334.831 216.966 334.825 216.999C334.82 217.031 334.802 217.061 334.776 217.081C334.749 217.101 334.716 217.111 334.683 217.107V217.105Z" fill="#0C0C0C"/>
<path d="M345.857 219.557C347.39 219.865 348.962 218.477 349.27 216.946C349.579 215.415 348.507 214.321 346.974 214.013L345.978 214.88L344.539 219.292L345.857 219.557Z" fill="#E98862"/>
<path d="M334.083 210.144C333.894 210.01 333.687 209.902 333.469 209.823C333.249 209.74 333.018 209.688 332.783 209.668C332.548 209.646 332.311 209.659 332.08 209.707C331.847 209.755 331.621 209.831 331.407 209.935L331.4 209.938C331.377 209.946 331.351 209.946 331.329 209.936C331.306 209.927 331.287 209.909 331.277 209.887C331.266 209.865 331.264 209.84 331.272 209.816C331.279 209.792 331.294 209.772 331.315 209.76C331.542 209.64 331.783 209.55 332.032 209.49C332.284 209.429 332.543 209.406 332.801 209.422C333.323 209.451 333.828 209.62 334.264 209.91C334.295 209.933 334.317 209.967 334.323 210.005C334.33 210.043 334.322 210.083 334.3 210.115C334.278 210.147 334.244 210.169 334.206 210.177C334.168 210.185 334.129 210.177 334.096 210.157L334.092 210.154L334.083 210.144Z" fill="#0C0C0C"/>
<path d="M338.213 210.714C338.726 210.612 339.257 210.65 339.751 210.823C339.995 210.907 340.226 211.027 340.435 211.179C340.642 211.329 340.83 211.505 340.994 211.702C341.012 211.722 341.021 211.747 341.02 211.774C341.018 211.8 341.007 211.825 340.987 211.842C340.968 211.86 340.942 211.869 340.916 211.868C340.89 211.867 340.865 211.855 340.847 211.836L340.842 211.831C340.684 211.653 340.504 211.496 340.307 211.363C340.111 211.23 339.897 211.127 339.672 211.058C339.224 210.918 338.746 210.898 338.288 211.002L338.277 211.005C338.239 211.014 338.198 211.008 338.164 210.987C338.13 210.967 338.106 210.934 338.097 210.895C338.087 210.857 338.093 210.817 338.114 210.783C338.134 210.749 338.167 210.725 338.206 210.715L338.213 210.714Z" fill="#0C0C0C"/>
<path d="M315.336 271.244C313.699 270.531 312.475 269.768 309.68 267.665C307.664 266.153 305.79 264.461 304.082 262.608L318.43 235.333L319.054 234.148L331.996 240.945L320.77 262.287L320.718 262.381L320.816 262.761" fill="#EA394A"/>
<path d="M363.055 249.303C362.678 253.348 362.597 259.638 362.623 265.231C357.213 270.133 350.605 273.526 343.466 275.069C336.326 276.611 328.906 276.248 321.951 274.017C321.1 265.583 319.835 253.189 319.121 245.557C318.398 237.652 316.272 235.041 322.075 231.255C325.272 229.63 330.341 229.487 332.619 229.487C331.846 236.98 347.654 237.902 348.047 229.487C359.87 230.591 365.344 230.865 363.055 249.303Z" fill="#EA394A"/>
<path d="M333.334 218.16C334.641 218.824 336.132 219.033 337.571 218.756C337.621 218.747 337.673 218.752 337.72 218.77C337.767 218.789 337.808 218.821 337.838 218.862C337.868 218.903 337.885 218.952 337.888 219.003C337.891 219.053 337.879 219.104 337.855 219.148C337.426 219.904 336.407 221.195 334.661 220.669C333.534 220.329 333.108 219.172 332.948 218.453C332.937 218.404 332.941 218.352 332.958 218.304C332.976 218.256 333.006 218.214 333.047 218.183C333.088 218.152 333.136 218.134 333.187 218.129C333.238 218.125 333.289 218.136 333.334 218.16Z" fill="white"/>
<path d="M333.252 212.354C333.601 212.354 333.884 212.072 333.884 211.724C333.884 211.375 333.601 211.093 333.252 211.093C332.904 211.093 332.621 211.375 332.621 211.724C332.621 212.072 332.904 212.354 333.252 212.354Z" fill="#0C0C0C"/>
<path d="M339.32 213.415C339.669 213.415 339.951 213.133 339.951 212.784C339.951 212.436 339.669 212.154 339.32 212.154C338.972 212.154 338.689 212.436 338.689 212.784C338.689 213.133 338.972 213.415 339.32 213.415Z" fill="#0C0C0C"/>
<path d="M320.519 259.171H320.531C320.557 259.167 320.58 259.154 320.596 259.133C320.611 259.112 320.618 259.086 320.614 259.061L319.498 247.827C319.497 247.814 319.493 247.802 319.486 247.791C319.48 247.78 319.471 247.77 319.461 247.762C319.451 247.754 319.439 247.749 319.426 247.746C319.414 247.743 319.401 247.742 319.388 247.744C319.376 247.746 319.363 247.75 319.352 247.756C319.341 247.763 319.332 247.772 319.324 247.782C319.316 247.792 319.31 247.804 319.307 247.816C319.304 247.828 319.303 247.841 319.305 247.854L320.421 259.088C320.424 259.111 320.436 259.132 320.454 259.148C320.472 259.163 320.495 259.171 320.519 259.171Z" fill="#0C0C0C"/>
<path d="M319.06 250.616H307.666V264.575H319.06V250.616Z" fill="white"/>
<path d="M314.394 257.595C314.394 256.673 314.668 255.772 315.181 255.006C315.694 254.239 316.423 253.642 317.275 253.29C318.128 252.937 319.066 252.845 319.971 253.025C320.876 253.205 321.708 253.649 322.36 254.301C323.013 254.953 323.457 255.783 323.637 256.688C323.817 257.592 323.724 258.529 323.371 259.381C323.018 260.232 322.42 260.96 321.652 261.472C320.885 261.984 319.983 262.258 319.06 262.258C317.823 262.256 316.637 261.764 315.762 260.89C314.887 260.016 314.395 258.831 314.394 257.595ZM316.305 257.595C316.305 258.14 316.467 258.672 316.769 259.124C317.072 259.577 317.502 259.929 318.006 260.138C318.509 260.346 319.063 260.401 319.597 260.294C320.132 260.188 320.623 259.926 321.008 259.541C321.393 259.156 321.656 258.666 321.762 258.132C321.868 257.598 321.814 257.045 321.605 256.542C321.397 256.039 321.043 255.609 320.59 255.307C320.137 255.005 319.605 254.843 319.06 254.843C318.33 254.844 317.629 255.134 317.113 255.65C316.596 256.166 316.306 256.866 316.305 257.595Z" fill="white"/>
<path d="M318.969 259.323C319.008 259.087 319.128 258.871 319.309 258.715C319.49 258.559 319.721 258.471 319.96 258.467C319.954 258.458 319.949 258.447 319.946 258.436L319.607 258.362C319.37 258.315 319.157 258.188 319.004 258.003C318.85 257.817 318.766 257.584 318.764 257.343C318.766 257.192 318.802 257.044 318.869 256.908C318.935 256.772 319.031 256.653 319.15 256.559C319.268 256.465 319.406 256.399 319.553 256.364C319.7 256.33 319.853 256.329 320.001 256.36L320.802 256.533C320.802 256.53 320.802 256.527 320.802 256.524C320.804 256.518 320.806 256.511 320.809 256.506C320.6 256.408 320.431 256.242 320.329 256.036C320.227 255.829 320.197 255.595 320.246 255.369C320.333 254.778 321.044 254.583 321.564 254.696L323.637 255.066L322.937 254.603C322.717 254.45 322.562 254.22 322.505 253.957C322.448 253.695 322.493 253.421 322.63 253.191C322.705 253.074 322.803 252.974 322.918 252.897C323.033 252.819 323.163 252.766 323.299 252.74C323.435 252.715 323.576 252.717 323.711 252.747C323.846 252.777 323.974 252.835 324.086 252.916L332.443 262.469L330.588 261.628C330.012 262.475 329.196 263.13 328.245 263.51C327.294 263.89 326.251 263.977 325.25 263.761L320.718 262.774C320.482 262.727 320.268 262.601 320.115 262.415C319.961 262.229 319.876 261.996 319.875 261.755C319.878 261.538 319.951 261.327 320.083 261.154C320.214 260.981 320.398 260.855 320.606 260.793C320.6 260.778 320.597 260.761 320.599 260.744C320.602 260.729 320.608 260.714 320.618 260.702C320.627 260.689 320.64 260.679 320.654 260.673L319.818 260.493C319.554 260.441 319.32 260.292 319.163 260.075C319.005 259.858 318.936 259.589 318.969 259.323Z" fill="#E98862"/>
<path opacity="0.2" d="M322.315 256.87C322.337 256.865 322.357 256.853 322.371 256.835C322.384 256.818 322.392 256.796 322.391 256.774C322.391 256.752 322.383 256.73 322.368 256.713C322.354 256.696 322.334 256.685 322.312 256.681L320.912 256.445C320.899 256.442 320.886 256.442 320.874 256.444C320.861 256.447 320.849 256.452 320.838 256.459C320.828 256.466 320.818 256.476 320.811 256.487C320.804 256.497 320.8 256.51 320.798 256.522C320.795 256.535 320.796 256.548 320.799 256.561C320.802 256.573 320.807 256.585 320.815 256.595C320.823 256.606 320.832 256.615 320.844 256.621C320.855 256.628 320.867 256.632 320.88 256.634L322.28 256.87C322.292 256.872 322.304 256.872 322.315 256.87Z" fill="#0C0C0C"/>
<path opacity="0.2" d="M321.978 258.848C321.999 258.843 322.019 258.831 322.033 258.814C322.047 258.796 322.054 258.775 322.054 258.752C322.053 258.73 322.045 258.709 322.031 258.692C322.016 258.675 321.997 258.663 321.975 258.659L320.057 258.32C320.044 258.317 320.031 258.316 320.018 258.319C320.006 258.321 319.993 258.326 319.982 258.333C319.972 258.34 319.962 258.35 319.955 258.36C319.948 258.371 319.943 258.383 319.941 258.396C319.939 258.409 319.939 258.422 319.942 258.435C319.945 258.448 319.95 258.459 319.958 258.47C319.966 258.48 319.976 258.489 319.987 258.496C319.998 258.502 320.01 258.507 320.023 258.508L321.941 258.848C321.953 258.85 321.966 258.85 321.978 258.848Z" fill="#0C0C0C"/>
<path opacity="0.2" d="M321.625 260.992C321.647 260.987 321.667 260.975 321.681 260.958C321.695 260.94 321.702 260.918 321.701 260.896C321.701 260.873 321.692 260.852 321.677 260.835C321.662 260.818 321.642 260.807 321.62 260.804L320.71 260.665C320.686 260.662 320.662 260.669 320.642 260.684C320.623 260.699 320.61 260.721 320.606 260.746C320.603 260.77 320.608 260.794 320.622 260.815C320.636 260.835 320.657 260.849 320.681 260.854L321.591 260.993C321.602 260.995 321.614 260.995 321.625 260.992Z" fill="#0C0C0C"/>
<path d="M368.86 258.142C363.733 265.507 356.365 271.024 347.85 273.875L347.847 273.872C345.955 273.502 327.914 266.386 325.527 265.918L328.138 253.749C334.844 255.081 347.073 260.22 353.816 261.557L349.059 240.01C348.886 239.058 348.905 238.081 349.113 237.137C349.321 236.192 349.715 235.298 350.272 234.507C350.829 233.716 351.537 233.042 352.356 232.527C353.175 232.011 354.089 231.663 355.044 231.502C355.999 231.342 356.976 231.372 357.919 231.592C358.862 231.812 359.752 232.216 360.537 232.782C361.322 233.348 361.987 234.064 362.493 234.889C362.999 235.713 363.337 236.63 363.485 237.586L368.86 258.142Z" fill="#EA394A"/>
<path d="M358.927 263.144C358.951 263.143 358.975 263.134 358.992 263.117C359.01 263.1 359.021 263.078 359.023 263.053C359.025 263.029 359.017 263.005 359.002 262.986C358.987 262.967 358.966 262.954 358.942 262.95L353.872 261.232C353.859 261.23 353.846 261.23 353.834 261.233C353.821 261.236 353.809 261.242 353.799 261.249C353.789 261.257 353.78 261.267 353.773 261.278C353.767 261.289 353.762 261.301 353.761 261.314C353.757 261.339 353.763 261.365 353.779 261.386C353.794 261.407 353.817 261.42 353.843 261.424L358.913 263.142C358.918 263.143 358.922 263.144 358.927 263.144Z" fill="#0C0C0C"/>
<path d="M353.949 261.314C353.952 261.345 353.943 261.375 353.923 261.398C353.912 261.409 353.899 261.417 353.884 261.421C353.87 261.426 353.854 261.427 353.839 261.425L328.301 253.895L325.742 265.872L347.733 273.91C347.665 273.933 347.593 273.955 347.525 273.978C347.476 273.994 347.427 274.011 347.375 274.024L325.598 266.036C325.574 266.03 325.553 266.014 325.539 265.992C325.526 265.97 325.522 265.944 325.527 265.919L328.138 253.75C328.142 253.737 328.147 253.726 328.155 253.716C328.163 253.706 328.173 253.697 328.184 253.691C328.195 253.684 328.207 253.679 328.22 253.676C328.233 253.674 328.246 253.675 328.259 253.678L353.735 261.218L350.851 249.339C350.848 249.313 350.854 249.288 350.869 249.267C350.884 249.246 350.907 249.233 350.932 249.229C350.945 249.226 350.958 249.226 350.97 249.229C350.983 249.231 350.995 249.236 351.006 249.244C351.016 249.251 351.025 249.26 351.032 249.271C351.039 249.282 351.044 249.294 351.046 249.306L353.949 261.314Z" fill="#0C0C0C"/>
<path d="M20.9351 245.791C20.9113 245.791 20.8878 245.786 20.8659 245.777C20.8443 245.768 20.8246 245.755 20.8082 245.738C20.7917 245.721 20.7786 245.702 20.7698 245.68C20.7609 245.658 20.7565 245.635 20.7566 245.612C20.7567 245.588 20.7615 245.565 20.7706 245.544L27.7626 228.942C27.781 228.898 27.816 228.863 27.8599 228.846C27.9038 228.828 27.9529 228.828 27.9965 228.847C28.0402 228.865 28.0747 228.9 28.0925 228.944C28.1104 228.988 28.11 229.037 28.0916 229.08L21.0996 245.682C21.086 245.714 21.0632 245.742 21.0339 245.761C21.0046 245.781 20.9703 245.791 20.9351 245.791Z" fill="#0C0C0C"/>
<path d="M62.0787 245.98H62.0709C62.0475 245.981 62.0241 245.977 62.002 245.969C61.98 245.961 61.9598 245.949 61.9425 245.933C61.9252 245.917 61.9112 245.898 61.9012 245.877C61.8913 245.856 61.8856 245.833 61.8846 245.81L61.1052 228.829C61.1046 228.782 61.1218 228.737 61.1534 228.703C61.1849 228.668 61.2284 228.647 61.2751 228.643C61.2985 228.642 61.322 228.645 61.344 228.653C61.3661 228.661 61.3864 228.673 61.4037 228.689C61.4211 228.705 61.4351 228.724 61.4451 228.745C61.455 228.766 61.4607 228.789 61.4617 228.813L62.2411 245.793C62.2434 245.839 62.2278 245.884 62.1975 245.919C62.1672 245.954 62.1247 245.975 62.0787 245.98Z" fill="#0C0C0C"/>
</g>
<defs>
<clipPath id="clip0_1_252">
<rect width="398" height="276" fill="white"/>
</clipPath>
</defs>
</svg>
